<svg width="530" height="280" viewBox="0 0 530 280" fill="none" xmlns="http://www.w3.org/2000/svg">
<g id="Math">
<g id="Bubles1">
<path id="Path 682" d="M85.9649 105.614C83.536 105.614 81.1617 104.894 79.1422 103.544C77.1226 102.195 75.5486 100.277 74.6191 98.0331C73.6896 95.7891 73.4463 93.3199 73.9201 90.9377C74.3939 88.5555 75.5635 86.3673 77.2809 84.6498C78.9984 82.9323 81.1865 81.7626 83.5687 81.2887C85.9509 80.8148 88.4201 81.0579 90.6641 81.9873C92.9082 82.9167 94.8262 84.4907 96.1757 86.5101C97.5252 88.5296 98.2455 90.9039 98.2456 93.3328V93.3328C98.242 96.5888 96.947 99.7103 94.6447 102.013C92.3424 104.315 89.2209 105.61 85.9649 105.614V105.614Z" fill="#B5FFD9"/>
<path id="Path 684" d="M121.579 136.316C120.365 136.316 119.177 135.956 118.168 135.281C117.158 134.606 116.371 133.647 115.906 132.525C115.441 131.403 115.32 130.169 115.557 128.978C115.793 127.787 116.378 126.692 117.237 125.834C118.096 124.975 119.19 124.39 120.381 124.153C121.572 123.916 122.807 124.038 123.929 124.502C125.051 124.967 126.01 125.754 126.684 126.764C127.359 127.774 127.719 128.961 127.719 130.175V130.175C127.717 131.803 127.07 133.364 125.919 134.515C124.768 135.666 123.207 136.314 121.579 136.316V136.316Z" fill="#B5FFD9"/>
<path id="Path 683" d="M107.456 124.035C105.634 124.035 103.854 123.495 102.339 122.483C100.824 121.471 99.6439 120.032 98.9468 118.349C98.2496 116.666 98.0672 114.814 98.4226 113.028C98.7779 111.241 99.6551 109.6 100.943 108.312C102.231 107.024 103.872 106.147 105.659 105.791C107.446 105.436 109.298 105.618 110.981 106.315C112.664 107.012 114.102 108.193 115.114 109.707C116.126 111.222 116.667 113.002 116.667 114.824V114.824C116.664 117.266 115.693 119.607 113.966 121.334C112.239 123.061 109.898 124.032 107.456 124.035V124.035Z" fill="#B5FFD9"/>
</g>
<g id="Bubles2">
<path id="Path 682_2" d="M437.193 105.614C439.622 105.614 441.996 104.894 444.016 103.544C446.035 102.195 447.609 100.277 448.539 98.0331C449.468 95.7891 449.712 93.3199 449.238 90.9377C448.764 88.5555 447.594 86.3673 445.877 84.6498C444.16 82.9323 441.971 81.7626 439.589 81.2887C437.207 80.8148 434.738 81.0579 432.494 81.9873C430.25 82.9167 428.332 84.4907 426.982 86.5101C425.633 88.5296 424.912 90.9039 424.912 93.3328V93.3328C424.916 96.5888 426.211 99.7103 428.513 102.013C430.815 104.315 433.937 105.61 437.193 105.614V105.614Z" fill="#B5FFD9"/>
<path id="Path 684_2" d="M401.579 136.316C402.793 136.316 403.981 135.956 404.99 135.281C406 134.606 406.787 133.647 407.252 132.525C407.717 131.403 407.838 130.169 407.601 128.978C407.364 127.787 406.78 126.692 405.921 125.834C405.062 124.975 403.968 124.39 402.777 124.153C401.586 123.916 400.351 124.038 399.229 124.502C398.107 124.967 397.148 125.754 396.474 126.764C395.799 127.774 395.439 128.961 395.439 130.175V130.175C395.44 131.803 396.088 133.364 397.239 134.515C398.39 135.666 399.951 136.314 401.579 136.316V136.316Z" fill="#B5FFD9"/>
<path id="Path 683_2" d="M415.702 124.035C417.523 124.035 419.304 123.495 420.819 122.483C422.333 121.471 423.514 120.032 424.211 118.349C424.908 116.666 425.091 114.814 424.735 113.028C424.38 111.241 423.503 109.6 422.215 108.312C420.927 107.024 419.286 106.147 417.499 105.791C415.712 105.436 413.86 105.618 412.177 106.315C410.494 107.012 409.056 108.193 408.044 109.707C407.032 111.222 406.491 113.002 406.491 114.824V114.824C406.494 117.266 407.465 119.607 409.192 121.334C410.919 123.061 413.26 124.032 415.702 124.035V124.035Z" fill="#B5FFD9"/>
</g>
<g id="Pj1">
<path id="Vector" d="M145.463 184.675C147.554 180.266 137.863 171.291 123.818 164.63C109.773 157.968 96.6914 156.142 94.6002 160.552C92.5089 164.961 102.2 173.935 116.245 180.597C130.29 187.258 143.371 189.084 145.463 184.675Z" fill="#170055"/>
<path id="Vector_2" d="M261.38 230.089C265.121 226.956 260.065 214.755 250.085 202.836C240.106 190.917 228.983 183.794 225.241 186.927C221.5 190.06 226.556 202.262 236.536 214.181C246.515 226.099 257.638 233.222 261.38 230.089Z" fill="#170055"/>
<path id="Vector_3" d="M183.436 255.027C214.526 255.027 239.729 229.824 239.729 198.734C239.729 167.644 214.526 142.441 183.436 142.441C152.346 142.441 127.143 167.644 127.143 198.734C127.143 229.824 152.346 255.027 183.436 255.027Z" fill="#170055"/>
<path id="Vector_4" d="M207.263 242.913H190.161V273.554H207.263V242.913Z" fill="#170055"/>
<path id="Vector_5" d="M173.06 242.913H155.958V273.554H173.06V242.913Z" fill="#170055"/>
<path id="Vector_6" d="M193.012 279.254C200.882 279.254 207.263 276.861 207.263 273.91C207.263 270.958 200.882 268.566 193.012 268.566C185.141 268.566 178.76 270.958 178.76 273.91C178.76 276.861 185.141 279.254 193.012 279.254Z" fill="#170055"/>
<path id="Vector_7" d="M158.808 278.542C166.679 278.542 173.06 276.149 173.06 273.197C173.06 270.246 166.679 267.853 158.808 267.853C150.937 267.853 144.557 270.246 144.557 273.197C144.557 276.149 150.937 278.542 158.808 278.542Z" fill="#170055"/>
<path id="Vector_8" d="M165.761 127.972C170.787 107.729 192.975 95.8161 215.319 101.364C237.663 106.912 251.701 127.82 246.674 148.063C241.648 168.306 224.971 168.372 202.628 162.823C180.284 157.275 160.734 148.215 165.761 127.972Z" fill="#3E00FF"/>
<path id="Vector_9" d="M175.02 205.624C185.386 205.624 193.788 197.221 193.788 186.855C193.788 176.49 185.386 168.087 175.02 168.087C164.655 168.087 156.252 176.49 156.252 186.855C156.252 197.221 164.655 205.624 175.02 205.624Z" fill="white"/>
<path id="Vector_10" d="M167.307 186.384C170.762 186.384 173.563 183.583 173.563 180.128C173.563 176.673 170.762 173.872 167.307 173.872C163.852 173.872 161.051 176.673 161.051 180.128C161.051 183.583 163.852 186.384 167.307 186.384Z" fill="#3F3D56"/>
<path id="Vector_11" d="M186.794 225.958C187.385 229.221 186.657 232.586 184.768 235.313C182.88 238.039 179.986 239.905 176.723 240.499C173.46 241.093 170.095 240.367 167.367 238.481C164.639 236.594 162.771 233.702 162.174 230.44V230.44L162.17 230.415C160.939 223.616 166.196 221.209 172.996 219.979C179.796 218.748 185.563 219.158 186.794 225.958Z" fill="white"/>
</g>
<g id="Pj2">
<path id="Vector_12" d="M406.514 180.597C420.56 173.935 430.25 164.961 428.159 160.552C426.068 156.142 412.987 157.968 398.941 164.63C384.896 171.291 375.205 180.266 377.297 184.675C379.388 189.084 392.469 187.258 406.514 180.597Z" fill="#170055"/>
<path id="Vector_13" d="M286.224 214.181C296.203 202.262 301.259 190.06 297.518 186.927C293.776 183.794 282.653 190.917 272.674 202.836C262.694 214.755 257.638 226.956 261.38 230.089C265.121 233.222 276.244 226.099 286.224 214.181Z" fill="#170055"/>
<path id="Vector_14" d="M339.323 255.027C370.413 255.027 395.616 229.824 395.616 198.734C395.616 167.644 370.413 142.441 339.323 142.441C308.233 142.441 283.03 167.644 283.03 198.734C283.03 229.824 308.233 255.027 339.323 255.027Z" fill="#170055"/>
<path id="Vector_15" d="M332.598 242.913H315.496V273.554H332.598V242.913Z" fill="#170055"/>
<path id="Vector_16" d="M366.801 242.913H349.7V273.554H366.801V242.913Z" fill="#170055"/>
<path id="Vector_17" d="M329.748 279.254C337.619 279.254 343.999 276.861 343.999 273.91C343.999 270.958 337.619 268.566 329.748 268.566C321.877 268.566 315.496 270.958 315.496 273.91C315.496 276.861 321.877 279.254 329.748 279.254Z" fill="#170055"/>
<path id="Vector_18" d="M363.951 278.542C371.822 278.542 378.202 276.149 378.202 273.197C378.202 270.246 371.822 267.853 363.951 267.853C356.08 267.853 349.7 270.246 349.7 273.197C349.7 276.149 356.08 278.542 363.951 278.542Z" fill="#170055"/>
<path id="Vector_19" d="M356.999 127.972C351.972 107.729 329.784 95.8161 307.44 101.364C285.097 106.912 271.058 127.82 276.085 148.063C281.112 168.306 297.788 168.372 320.132 162.823C342.475 157.275 362.025 148.215 356.999 127.972Z" fill="#AE00FB"/>
<path id="Vector_20" d="M347.739 205.624C358.104 205.624 366.507 197.221 366.507 186.855C366.507 176.49 358.104 168.087 347.739 168.087C337.374 168.087 328.971 176.49 328.971 186.855C328.971 197.221 337.374 205.624 347.739 205.624Z" fill="white"/>
<path id="Vector_21" d="M355.453 186.384C358.908 186.384 361.709 183.583 361.709 180.128C361.709 176.673 358.908 173.872 355.453 173.872C351.997 173.872 349.196 176.673 349.196 180.128C349.196 183.583 351.997 186.384 355.453 186.384Z" fill="#3F3D56"/>
<path id="Vector_22" d="M335.965 225.958C335.374 229.221 336.102 232.586 337.991 235.313C339.879 238.039 342.773 239.905 346.036 240.499C349.299 241.093 352.664 240.367 355.393 238.481C358.121 236.594 359.988 233.702 360.585 230.44V230.44L360.589 230.415C361.82 223.616 356.563 221.209 349.763 219.979C342.964 218.748 337.196 219.158 335.965 225.958Z" fill="white"/>
</g>
<path id="Floor" d="M528.328 280H0.967252C0.71046 279.999 0.464433 279.869 0.283117 279.639C0.1018 279.409 0 279.097 0 278.772C0 278.447 0.1018 278.135 0.283117 277.905C0.464433 277.675 0.71046 277.545 0.967252 277.544H528.328C528.585 277.544 528.832 277.673 529.014 277.904C529.196 278.134 529.298 278.446 529.298 278.772C529.298 279.098 529.196 279.41 529.014 279.64C528.832 279.871 528.585 280 528.328 280V280Z" fill="#3F3D56"/>
<g id="Sum">
<path id="Path 681" d="M15.0319 39.2001C14.3018 39.2014 13.6021 39.5255 13.0862 40.1011C12.5704 40.6767 12.2807 41.4569 12.2807 42.2703C12.2807 43.0837 12.5704 43.8638 13.0862 44.4394C13.6021 45.0151 14.3018 45.3391 15.0319 45.3405H70.933C71.663 45.3391 72.3628 45.0151 72.8787 44.4394C73.3945 43.8638 73.6842 43.0837 73.6842 42.2703C73.6842 41.4569 73.3945 40.6767 72.8787 40.1011C72.3628 39.5255 71.663 39.2014 70.933 39.2001H15.0319Z" fill="#3F3D56"/>
<path id="Path 682_3" d="M39.9277 70.9375C39.9277 71.6683 40.2512 72.3693 40.8269 72.8861C41.4027 73.4029 42.1836 73.6932 42.9978 73.6932C43.8121 73.6932 44.593 73.4029 45.1688 72.8861C45.7446 72.3693 46.068 71.6683 46.068 70.9375L46.068 15.0364C46.068 14.3056 45.7446 13.6047 45.1688 13.0879C44.593 12.5711 43.8121 12.2807 42.9978 12.2807C42.1836 12.2807 41.4027 12.5711 40.8269 13.0879C40.2512 13.6047 39.9277 14.3056 39.9277 15.0364L39.9277 70.9375Z" fill="#3F3D56"/>
</g>
<g id="Subs">
<path id="Path 681_2" d="M15.0319 39.2982C14.3018 39.2996 13.6021 39.6236 13.0862 40.1993C12.5704 40.7749 12.2807 41.555 12.2807 42.3684C12.2807 43.1818 12.5704 43.962 13.0862 44.5376C13.6021 45.1132 14.3018 45.4373 15.0319 45.4386H70.933C71.663 45.4373 72.3628 45.1132 72.8787 44.5376C73.3945 43.962 73.6842 43.1818 73.6842 42.3684C73.6842 41.555 73.3945 40.7749 72.8787 40.1993C72.3628 39.6236 71.663 39.2996 70.933 39.2982H15.0319Z" fill="#3F3D56"/>
</g>
<g id="Div">
<path id="Path 681_3" d="M444.857 39.2982C444.126 39.2996 443.427 39.6236 442.911 40.1993C442.395 40.7749 442.105 41.555 442.105 42.3684C442.105 43.1818 442.395 43.962 442.911 44.5376C443.427 45.1132 444.126 45.4373 444.857 45.4386H500.758C501.488 45.4373 502.187 45.1132 502.703 44.5376C503.219 43.962 503.509 43.1818 503.509 42.3684C503.509 41.555 503.219 40.7749 502.703 40.1993C502.187 39.6236 501.488 39.2996 500.758 39.2982H444.857Z" fill="#3F3D56"/>
<path id="Path 684_3" d="M472.807 30.7018C474.021 30.7018 475.209 30.3416 476.218 29.6669C477.228 28.9922 478.015 28.0333 478.48 26.9113C478.945 25.7893 479.066 24.5547 478.829 23.3636C478.593 22.1725 478.008 21.0784 477.149 20.2196C476.29 19.3609 475.196 18.776 474.005 18.5391C472.814 18.3021 471.579 18.4237 470.457 18.8884C469.335 19.3531 468.376 20.1401 467.702 21.1498C467.027 22.1595 466.667 23.3467 466.667 24.5611V24.5611C466.669 26.1891 467.316 27.7499 468.467 28.9011C469.618 30.0523 471.179 30.6999 472.807 30.7018V30.7018Z" fill="#3F3D56"/>
<path id="Path 685" d="M472.807 66.3158C474.021 66.3158 475.209 65.9557 476.218 65.281C477.228 64.6063 478.015 63.6473 478.48 62.5253C478.945 61.4033 479.066 60.1687 478.829 58.9776C478.593 57.7865 478.008 56.6924 477.149 55.8337C476.29 54.9749 475.196 54.3901 474.005 54.1531C472.814 53.9162 471.579 54.0377 470.457 54.5024C469.335 54.9671 468.376 55.7541 467.702 56.7638C467.027 57.7736 466.667 58.9607 466.667 60.1752V60.1752C466.669 61.8032 467.316 63.3639 468.467 64.5151C469.618 65.6663 471.179 66.3139 472.807 66.3158V66.3158Z" fill="#3F3D56"/>
</g>
<g id="Mul">
<path id="Path 681_4" d="M454.932 20.9803C454.415 20.465 453.691 20.1993 452.919 20.2416C452.147 20.2839 451.391 20.6307 450.816 21.2058C450.241 21.781 449.894 22.5375 449.852 23.3093C449.809 24.081 450.075 24.805 450.59 25.3222L490.118 64.8502C490.635 65.3655 491.359 65.6312 492.131 65.5889C492.903 65.5466 493.659 65.1998 494.235 64.6247C494.81 64.0495 495.157 63.293 495.199 62.5212C495.241 61.7495 494.975 61.0255 494.46 60.5083L454.932 20.9803Z" fill="#3F3D56"/>
<path id="Path 682_4" d="M450.094 61.0259C449.578 61.5427 449.311 62.2671 449.352 63.0397C449.394 63.8122 449.741 64.5697 450.317 65.1455C450.892 65.7212 451.65 66.0681 452.423 66.1098C453.195 66.1515 453.919 65.8846 454.436 65.3678L493.964 25.8398C494.481 25.323 494.748 24.5987 494.706 23.8261C494.665 23.0536 494.318 22.2961 493.742 21.7203C493.166 21.1445 492.409 20.7977 491.636 20.756C490.863 20.7143 490.139 20.9812 489.622 21.498L450.094 61.0259Z" fill="#3F3D56"/>
</g>
</g>
</svg>
