<svg width="580" height="397" viewBox="0 0 580 397" fill="none" xmlns="http://www.w3.org/2000/svg">
<g id="Send">
<g id="Person">
<path id="Vector" d="M39.2562 385.064L50.6882 385.063L56.1252 340.967L39.2522 340.969L39.2562 385.064Z" fill="#FFB8B8"/>
<path id="Vector_2" d="M72.7369 395.676L36.8072 395.68L36.806 381.798L58.8538 381.796C62.5355 381.795 66.0665 383.258 68.6701 385.861C71.2737 388.464 72.7366 391.995 72.7369 395.676V395.676V395.676Z" fill="#2F2E41"/>
<path id="Vector_3" d="M131.256 385.064L142.688 385.063L148.125 340.967L131.252 340.969L131.256 385.064Z" fill="#FFB8B8"/>
<path id="Vector_4" d="M164.737 395.676L128.807 395.68L128.806 381.798L150.854 381.796C154.536 381.795 158.067 383.258 160.67 385.861C163.274 388.464 164.737 391.995 164.737 395.676V395.676V395.676Z" fill="#2F2E41"/>
<path id="Vector_5" d="M37.0052 380.274C35.968 380.275 34.9627 379.891 34.1618 379.189C33.361 378.487 32.8145 377.509 32.6162 376.425L25.3181 278.736C17.4615 196.01 30.9095 166.866 31.0463 166.581L31.1938 166.274L31.5173 166.294L94.5974 170.161L107.988 216.821L143.383 267.482C148.983 275.528 151.958 285.304 151.854 295.32L150.856 374.274C150.836 375.468 150.626 376.906 149.856 377.774C149.086 378.642 147.474 379.184 146.356 379.274L136.856 380.274L128.356 379.774C127.201 379.863 126.744 380.066 125.856 379.274C124.968 378.481 124.976 378.001 124.856 376.774L118.98 290.808C118.967 290.725 118.93 290.647 118.874 290.587L66.379 238.467C66.2059 238.27 65.9887 238.124 65.7479 238.041C65.5072 237.959 65.2507 237.943 65.0025 237.995C64.7544 238.048 64.5228 238.166 64.3295 238.34C64.1362 238.513 63.9875 238.737 63.8974 238.988L58.6033 374.748C58.6618 375.393 58.5946 376.044 58.406 376.66C58.2173 377.277 57.9112 377.845 57.5068 378.329C57.0957 378.825 56.5925 379.223 56.0292 379.501C55.4658 379.778 54.8545 379.928 54.234 379.941L37.0878 380.273C37.0602 380.274 37.0325 380.274 37.0052 380.274Z" fill="#2F2E41"/>
<path id="Vector_6" d="M81.3923 71.5981C96.9196 63.1102 102.626 43.6419 94.138 28.1147C85.6501 12.5874 66.1818 6.88089 50.6546 15.3689C35.1273 23.8569 29.4208 43.3251 37.9088 58.8524C46.3968 74.3797 65.865 80.0861 81.3923 71.5981Z" fill="#2F2E41"/>
<path id="Vector_7" d="M203.655 106.378C202.461 105.704 201.134 105.3 199.767 105.195C198.4 105.089 197.027 105.285 195.744 105.768C194.461 106.251 193.299 107.009 192.341 107.989C191.383 108.969 190.651 110.148 190.197 111.441L168.803 112.641L166.361 125.82L196.55 123.702C198.774 124.32 201.147 124.101 203.22 123.086C205.293 122.071 206.921 120.331 207.797 118.195C208.673 116.06 208.735 113.678 207.972 111.5C207.208 109.322 205.672 107.499 203.655 106.378V106.378Z" fill="#FFB8B8"/>
<path id="Vector_8" d="M26.8672 215.121C27.46 213.885 27.7746 212.534 27.7888 211.163C27.8029 209.792 27.5164 208.435 26.9493 207.187C26.3822 205.939 25.5483 204.83 24.5065 203.939C23.4646 203.048 22.2401 202.397 20.9191 202.03L18.2982 180.763L4.98584 179.204L9.10883 209.185C8.64026 211.445 9.01696 213.798 10.1675 215.799C11.3181 217.8 13.1626 219.309 15.3516 220.041C17.5405 220.772 19.9218 220.676 22.0443 219.769C24.1667 218.862 25.8827 217.208 26.8672 215.121H26.8672Z" fill="#FFB8B8"/>
<path id="Vector_9" d="M64.6206 77.8523C78.1853 77.8523 89.1816 66.8559 89.1816 53.2913C89.1816 39.7266 78.1853 28.7302 64.6206 28.7302C51.0559 28.7302 40.0596 39.7266 40.0596 53.2913C40.0596 66.8559 51.0559 77.8523 64.6206 77.8523Z" fill="#FFB8B8"/>
<path id="Vector_10" d="M70.6697 198.274C57.3771 198.274 46.2382 197.001 35.1911 192.329C30.6433 190.406 23.4957 188.756 22.8562 185.774C26.8562 181.274 27.9635 124.997 33.1459 106.624C34.5521 101.685 37.1124 97.3189 40.5301 94.0312C43.9478 90.7434 48.0831 88.6686 52.4568 88.0472C57.3913 87.3594 72.1517 84.8912 80.5109 83.4814C84.6182 82.7508 88.8036 83.9636 92.1605 86.8572C94.3763 88.8256 95.5268 90.9397 95.5802 93.1415L102.856 187.274C99.3562 193.274 98.3562 193.274 95.3562 195.274C92.3562 197.274 91.9004 197.313 89.6176 197.491C84.5098 197.9 77.8707 198.274 70.6697 198.274Z" fill="#00ADB5"/>
<path id="Vector_11" d="M183.866 131.13C183.464 131.583 182.975 131.95 182.427 132.208C181.88 132.466 181.285 132.609 180.68 132.63L145.05 134.52C140.646 134.677 136.277 133.686 132.372 131.643L81.6955 105.093C80.1132 104.264 78.7691 103.045 77.7907 101.55C76.8123 100.056 76.232 98.3363 76.105 96.5546C75.978 94.7729 76.3085 92.9884 77.0651 91.3703C77.8217 89.7523 78.9793 88.3544 80.428 87.3095L80.7202 87.715L80.428 87.3095C81.9292 86.2292 83.6892 85.5647 85.5299 85.383C87.3705 85.2014 89.2265 85.5092 90.9099 86.2752L146.313 111.56L178.842 107.093C179.434 107.041 180.032 107.107 180.598 107.287C181.165 107.468 181.691 107.759 182.145 108.144C182.598 108.528 182.971 108.999 183.242 109.529C183.512 110.059 183.675 110.637 183.721 111.23L184.995 127.788C185.002 127.871 185.006 127.953 185.008 128.036C185.037 129.175 184.628 130.283 183.866 131.13V131.13Z" fill="#00ADB5"/>
<path id="Vector_12" d="M4.49885 198.137C3.89336 198.136 3.29413 198.014 2.73704 197.777C2.17995 197.54 1.67643 197.193 1.25669 196.756C0.836952 196.32 0.509618 195.803 0.294257 195.237C0.0788958 194.671 -0.0200414 194.068 0.00336329 193.463L0.783362 157.808C0.954343 153.402 2.26999 149.116 4.60074 145.372L34.8662 96.8231C35.8146 95.3106 37.1319 94.064 38.6945 93.2005C40.2571 92.3371 42.0136 91.8851 43.7989 91.8872C45.5863 91.8875 47.3436 92.3479 48.9016 93.224C50.4596 94.1001 51.7659 95.3625 52.6947 96.8896V96.8896C53.6596 98.4676 54.1906 100.272 54.2341 102.121C54.2775 103.971 53.8319 105.798 52.9422 107.42L23.5844 160.776L25.6053 193.524C25.616 194.121 25.5078 194.714 25.2871 195.268C25.0664 195.823 24.7376 196.328 24.3197 196.755C23.9019 197.181 23.4033 197.52 22.8532 197.752C22.3031 197.983 21.7123 198.103 21.1154 198.104L4.50883 198.137L4.49885 198.137Z" fill="#00ADB5"/>
<path id="Vector_13" d="M46.4272 49.8126L40.0552 32.6056L68.7072 24.3126L89.1862 30.6056V49.8126H46.4272Z" fill="#2F2E41"/>
<path id="Vector_14" d="M204.174 396.333H6.17432C5.9091 396.333 5.65476 396.228 5.46722 396.04C5.27969 395.852 5.17432 395.598 5.17432 395.333C5.17432 395.068 5.27969 394.813 5.46722 394.626C5.65476 394.438 5.9091 394.333 6.17432 394.333H204.174C204.44 394.333 204.694 394.438 204.881 394.626C205.069 394.813 205.174 395.068 205.174 395.333C205.174 395.598 205.069 395.852 204.881 396.04C204.694 396.228 204.44 396.333 204.174 396.333Z" fill="#CCCCCC"/>
</g>
<g id="Msg">
<path id="Vector_15" d="M563.001 215.833H215.001C210.627 215.828 206.433 214.088 203.339 210.995C200.246 207.901 198.506 203.707 198.501 199.333V22.3329C198.506 17.9583 200.246 13.7644 203.339 10.6711C206.433 7.5778 210.627 5.83783 215.001 5.83289H563.001C567.376 5.83782 571.57 7.57777 574.663 10.6711C577.756 13.7643 579.496 17.9583 579.501 22.3329V199.333C579.496 203.707 577.756 207.901 574.663 210.995C571.57 214.088 567.376 215.828 563.001 215.833Z" fill="#E6E6E6"/>
<path id="Vector_16" d="M559.001 203.833H219.001C216.748 203.83 214.587 202.934 212.993 201.341C211.4 199.747 210.504 197.586 210.501 195.333V26.3329C210.504 24.0793 211.4 21.9188 212.993 20.3253C214.587 18.7317 216.748 17.8354 219.001 17.8329H559.001C561.255 17.8354 563.415 18.7317 565.009 20.3253C566.602 21.9188 567.499 24.0793 567.501 26.3329V195.333C567.499 197.586 566.602 199.747 565.009 201.341C563.415 202.934 561.255 203.83 559.001 203.833Z" fill="white"/>
<path id="Vector_17" d="M314.001 105.96H256.001C253.748 105.958 251.587 105.061 249.993 103.468C248.4 101.874 247.504 99.7139 247.501 97.4604V55.2054C247.504 52.9519 248.4 50.7913 249.993 49.1978C251.587 47.6043 253.748 46.708 256.001 46.7054H314.001C316.255 46.708 318.415 47.6043 320.009 49.1978C321.602 50.7913 322.499 52.9519 322.501 55.2054V97.4604C322.499 99.7139 321.602 101.874 320.009 103.468C318.415 105.061 316.255 105.958 314.001 105.96Z" fill="#00ADB5"/>
<path id="William Paul Thurston" d="M358.01 67.7276L354.374 80.2736H352.538L349.622 70.1756L346.598 80.2736L344.78 80.2916L341.27 67.7276H343.016L345.752 78.3656L348.776 67.7276H350.612L353.492 78.3296L356.246 67.7276H358.01ZM360.649 68.8076C360.337 68.8076 360.073 68.6996 359.857 68.4836C359.641 68.2676 359.533 68.0036 359.533 67.6916C359.533 67.3796 359.641 67.1156 359.857 66.8996C360.073 66.6836 360.337 66.5756 360.649 66.5756C360.949 66.5756 361.201 66.6836 361.405 66.8996C361.621 67.1156 361.729 67.3796 361.729 67.6916C361.729 68.0036 361.621 68.2676 361.405 68.4836C361.201 68.6996 360.949 68.8076 360.649 68.8076ZM361.441 70.4096V80.2736H359.803V70.4096H361.441ZM365.87 66.9536V80.2736H364.232V66.9536H365.87ZM370.3 66.9536V80.2736H368.662V66.9536H370.3ZM373.938 68.8076C373.626 68.8076 373.362 68.6996 373.146 68.4836C372.93 68.2676 372.822 68.0036 372.822 67.6916C372.822 67.3796 372.93 67.1156 373.146 66.8996C373.362 66.6836 373.626 66.5756 373.938 66.5756C374.238 66.5756 374.49 66.6836 374.694 66.8996C374.91 67.1156 375.018 67.3796 375.018 67.6916C375.018 68.0036 374.91 68.2676 374.694 68.4836C374.49 68.6996 374.238 68.8076 373.938 68.8076ZM374.73 70.4096V80.2736H373.092V70.4096H374.73ZM376.909 75.3056C376.909 74.2976 377.113 73.4156 377.521 72.6596C377.929 71.8916 378.487 71.2976 379.195 70.8776C379.915 70.4576 380.713 70.2476 381.589 70.2476C382.453 70.2476 383.203 70.4336 383.839 70.8056C384.475 71.1776 384.949 71.6456 385.261 72.2096V70.4096H386.917V80.2736H385.261V78.4376C384.937 79.0136 384.451 79.4936 383.803 79.8776C383.167 80.2496 382.423 80.4356 381.571 80.4356C380.695 80.4356 379.903 80.2196 379.195 79.7876C378.487 79.3556 377.929 78.7496 377.521 77.9696C377.113 77.1896 376.909 76.3016 376.909 75.3056ZM385.261 75.3236C385.261 74.5796 385.111 73.9316 384.811 73.3796C384.511 72.8276 384.103 72.4076 383.587 72.1196C383.083 71.8196 382.525 71.6696 381.913 71.6696C381.301 71.6696 380.743 71.8136 380.239 72.1016C379.735 72.3896 379.333 72.8096 379.033 73.3616C378.733 73.9136 378.583 74.5616 378.583 75.3056C378.583 76.0616 378.733 76.7216 379.033 77.2856C379.333 77.8376 379.735 78.2636 380.239 78.5636C380.743 78.8516 381.301 78.9956 381.913 78.9956C382.525 78.9956 383.083 78.8516 383.587 78.5636C384.103 78.2636 384.511 77.8376 384.811 77.2856C385.111 76.7216 385.261 76.0676 385.261 75.3236ZM401.548 70.2296C402.316 70.2296 403 70.3916 403.6 70.7156C404.2 71.0276 404.674 71.5016 405.022 72.1376C405.37 72.7736 405.544 73.5476 405.544 74.4596V80.2736H403.924V74.6936C403.924 73.7096 403.678 72.9596 403.186 72.4436C402.706 71.9156 402.052 71.6516 401.224 71.6516C400.372 71.6516 399.694 71.9276 399.19 72.4796C398.686 73.0196 398.434 73.8056 398.434 74.8376V80.2736H396.814V74.6936C396.814 73.7096 396.568 72.9596 396.076 72.4436C395.596 71.9156 394.942 71.6516 394.114 71.6516C393.262 71.6516 392.584 71.9276 392.08 72.4796C391.576 73.0196 391.324 73.8056 391.324 74.8376V80.2736H389.686V70.4096H391.324V71.8316C391.648 71.3156 392.08 70.9196 392.62 70.6436C393.172 70.3676 393.778 70.2296 394.438 70.2296C395.266 70.2296 395.998 70.4156 396.634 70.7876C397.27 71.1596 397.744 71.7056 398.056 72.4256C398.332 71.7296 398.788 71.1896 399.424 70.8056C400.06 70.4216 400.768 70.2296 401.548 70.2296ZM421.417 71.3996C421.417 72.4436 421.057 73.3136 420.337 74.0096C419.629 74.6936 418.543 75.0356 417.079 75.0356H414.667V80.2736H413.029V67.7276H417.079C418.495 67.7276 419.569 68.0696 420.301 68.7536C421.045 69.4376 421.417 70.3196 421.417 71.3996ZM417.079 73.6856C417.991 73.6856 418.663 73.4876 419.095 73.0916C419.527 72.6956 419.743 72.1316 419.743 71.3996C419.743 69.8516 418.855 69.0776 417.079 69.0776H414.667V73.6856H417.079ZM422.841 75.3056C422.841 74.2976 423.045 73.4156 423.453 72.6596C423.861 71.8916 424.419 71.2976 425.127 70.8776C425.847 70.4576 426.645 70.2476 427.521 70.2476C428.385 70.2476 429.135 70.4336 429.771 70.8056C430.407 71.1776 430.881 71.6456 431.193 72.2096V70.4096H432.849V80.2736H431.193V78.4376C430.869 79.0136 430.383 79.4936 429.735 79.8776C429.099 80.2496 428.355 80.4356 427.503 80.4356C426.627 80.4356 425.835 80.2196 425.127 79.7876C424.419 79.3556 423.861 78.7496 423.453 77.9696C423.045 77.1896 422.841 76.3016 422.841 75.3056ZM431.193 75.3236C431.193 74.5796 431.043 73.9316 430.743 73.3796C430.443 72.8276 430.035 72.4076 429.519 72.1196C429.015 71.8196 428.457 71.6696 427.845 71.6696C427.233 71.6696 426.675 71.8136 426.171 72.1016C425.667 72.3896 425.265 72.8096 424.965 73.3616C424.665 73.9136 424.515 74.5616 424.515 75.3056C424.515 76.0616 424.665 76.7216 424.965 77.2856C425.265 77.8376 425.667 78.2636 426.171 78.5636C426.675 78.8516 427.233 78.9956 427.845 78.9956C428.457 78.9956 429.015 78.8516 429.519 78.5636C430.035 78.2636 430.443 77.8376 430.743 77.2856C431.043 76.7216 431.193 76.0676 431.193 75.3236ZM444.365 70.4096V80.2736H442.727V78.8156C442.415 79.3196 441.977 79.7156 441.413 80.0036C440.861 80.2796 440.249 80.4176 439.577 80.4176C438.809 80.4176 438.119 80.2616 437.507 79.9496C436.895 79.6256 436.409 79.1456 436.049 78.5096C435.701 77.8736 435.527 77.0996 435.527 76.1876V70.4096H437.147V75.9716C437.147 76.9436 437.393 77.6936 437.885 78.2216C438.377 78.7376 439.049 78.9956 439.901 78.9956C440.777 78.9956 441.467 78.7256 441.971 78.1856C442.475 77.6456 442.727 76.8596 442.727 75.8276V70.4096H444.365ZM448.769 66.9536V80.2736H447.131V66.9536H448.769ZM464.081 67.7276V69.0596H460.661V80.2736H459.023V69.0596H455.585V67.7276H464.081ZM470.994 70.2296C471.738 70.2296 472.41 70.3916 473.01 70.7156C473.61 71.0276 474.078 71.5016 474.414 72.1376C474.762 72.7736 474.936 73.5476 474.936 74.4596V80.2736H473.316V74.6936C473.316 73.7096 473.07 72.9596 472.578 72.4436C472.086 71.9156 471.414 71.6516 470.562 71.6516C469.698 71.6516 469.008 71.9216 468.492 72.4616C467.988 73.0016 467.736 73.7876 467.736 74.8196V80.2736H466.098V66.9536H467.736V71.8136C468.06 71.3096 468.504 70.9196 469.068 70.6436C469.644 70.3676 470.286 70.2296 470.994 70.2296ZM486.359 70.4096V80.2736H484.721V78.8156C484.409 79.3196 483.971 79.7156 483.407 80.0036C482.855 80.2796 482.243 80.4176 481.571 80.4176C480.803 80.4176 480.113 80.2616 479.501 79.9496C478.889 79.6256 478.403 79.1456 478.043 78.5096C477.695 77.8736 477.521 77.0996 477.521 76.1876V70.4096H479.141V75.9716C479.141 76.9436 479.387 77.6936 479.879 78.2216C480.371 78.7376 481.043 78.9956 481.895 78.9956C482.771 78.9956 483.461 78.7256 483.965 78.1856C484.469 77.6456 484.721 76.8596 484.721 75.8276V70.4096H486.359ZM490.763 72.0116C491.051 71.4476 491.459 71.0096 491.987 70.6976C492.527 70.3856 493.181 70.2296 493.949 70.2296V71.9216H493.517C491.681 71.9216 490.763 72.9176 490.763 74.9096V80.2736H489.125V70.4096H490.763V72.0116ZM499.332 80.4356C498.576 80.4356 497.898 80.3096 497.298 80.0576C496.698 79.7936 496.224 79.4336 495.876 78.9776C495.528 78.5096 495.336 77.9756 495.3 77.3756H496.992C497.04 77.8676 497.268 78.2696 497.676 78.5816C498.096 78.8936 498.642 79.0496 499.314 79.0496C499.938 79.0496 500.43 78.9116 500.79 78.6356C501.15 78.3596 501.33 78.0116 501.33 77.5916C501.33 77.1596 501.138 76.8416 500.754 76.6376C500.37 76.4216 499.776 76.2116 498.972 76.0076C498.24 75.8156 497.64 75.6236 497.172 75.4316C496.716 75.2276 496.32 74.9336 495.984 74.5496C495.66 74.1536 495.498 73.6376 495.498 73.0016C495.498 72.4976 495.648 72.0356 495.948 71.6156C496.248 71.1956 496.674 70.8656 497.226 70.6256C497.778 70.3736 498.408 70.2476 499.116 70.2476C500.208 70.2476 501.09 70.5236 501.762 71.0756C502.434 71.6276 502.794 72.3836 502.842 73.3436H501.204C501.168 72.8276 500.958 72.4136 500.574 72.1016C500.202 71.7896 499.698 71.6336 499.062 71.6336C498.474 71.6336 498.006 71.7596 497.658 72.0116C497.31 72.2636 497.136 72.5936 497.136 73.0016C497.136 73.3256 497.238 73.5956 497.442 73.8116C497.658 74.0156 497.922 74.1836 498.234 74.3156C498.558 74.4356 499.002 74.5736 499.566 74.7296C500.274 74.9216 500.85 75.1136 501.294 75.3056C501.738 75.4856 502.116 75.7616 502.428 76.1336C502.752 76.5056 502.92 76.9916 502.932 77.5916C502.932 78.1316 502.782 78.6176 502.482 79.0496C502.182 79.4816 501.756 79.8236 501.204 80.0756C500.664 80.3156 500.04 80.4356 499.332 80.4356ZM507.242 71.7596V77.5736C507.242 78.0536 507.344 78.3956 507.548 78.5996C507.752 78.7916 508.106 78.8876 508.61 78.8876H509.816V80.2736H508.34C507.428 80.2736 506.744 80.0636 506.288 79.6436C505.832 79.2236 505.604 78.5336 505.604 77.5736V71.7596H504.326V70.4096H505.604V67.9256H507.242V70.4096H509.816V71.7596H507.242ZM516.103 80.4356C515.179 80.4356 514.339 80.2256 513.583 79.8056C512.839 79.3856 512.251 78.7916 511.819 78.0236C511.399 77.2436 511.189 76.3436 511.189 75.3236C511.189 74.3156 511.405 73.4276 511.837 72.6596C512.281 71.8796 512.881 71.2856 513.637 70.8776C514.393 70.4576 515.239 70.2476 516.175 70.2476C517.111 70.2476 517.957 70.4576 518.713 70.8776C519.469 71.2856 520.063 71.8736 520.495 72.6416C520.939 73.4096 521.161 74.3036 521.161 75.3236C521.161 76.3436 520.933 77.2436 520.477 78.0236C520.033 78.7916 519.427 79.3856 518.659 79.8056C517.891 80.2256 517.039 80.4356 516.103 80.4356ZM516.103 78.9956C516.691 78.9956 517.243 78.8576 517.759 78.5816C518.275 78.3056 518.689 77.8916 519.001 77.3396C519.325 76.7876 519.487 76.1156 519.487 75.3236C519.487 74.5316 519.331 73.8596 519.019 73.3076C518.707 72.7556 518.299 72.3476 517.795 72.0836C517.291 71.8076 516.745 71.6696 516.157 71.6696C515.557 71.6696 515.005 71.8076 514.501 72.0836C514.009 72.3476 513.613 72.7556 513.313 73.3076C513.013 73.8596 512.863 74.5316 512.863 75.3236C512.863 76.1276 513.007 76.8056 513.295 77.3576C513.595 77.9096 513.991 78.3236 514.483 78.5996C514.975 78.8636 515.515 78.9956 516.103 78.9956ZM528.12 70.2296C529.32 70.2296 530.292 70.5956 531.036 71.3276C531.78 72.0476 532.152 73.0916 532.152 74.4596V80.2736H530.532V74.6936C530.532 73.7096 530.286 72.9596 529.794 72.4436C529.302 71.9156 528.63 71.6516 527.778 71.6516C526.914 71.6516 526.224 71.9216 525.708 72.4616C525.204 73.0016 524.952 73.7876 524.952 74.8196V80.2736H523.314V70.4096H524.952V71.8136C525.276 71.3096 525.714 70.9196 526.266 70.6436C526.83 70.3676 527.448 70.2296 528.12 70.2296Z" fill="black"/>
<path id="Mathematics is not about numbers, equations, computations, or algorithms: It is about understanding." d="M258.832 121.586V131.274H257.558V124.05L254.338 131.274H253.442L250.208 124.036V131.274H248.934V121.586H250.306L253.89 129.594L257.474 121.586H258.832ZM260.517 127.41C260.517 126.626 260.675 125.94 260.993 125.352C261.31 124.754 261.744 124.292 262.295 123.966C262.855 123.639 263.475 123.476 264.157 123.476C264.829 123.476 265.412 123.62 265.907 123.91C266.401 124.199 266.77 124.563 267.013 125.002V123.602H268.301V131.274H267.013V129.846C266.761 130.294 266.383 130.667 265.879 130.966C265.384 131.255 264.805 131.4 264.143 131.4C263.461 131.4 262.845 131.232 262.295 130.896C261.744 130.56 261.31 130.088 260.993 129.482C260.675 128.875 260.517 128.184 260.517 127.41ZM267.013 127.424C267.013 126.845 266.896 126.341 266.663 125.912C266.429 125.482 266.112 125.156 265.711 124.932C265.319 124.698 264.885 124.582 264.409 124.582C263.933 124.582 263.499 124.694 263.107 124.918C262.715 125.142 262.402 125.468 262.169 125.898C261.935 126.327 261.819 126.831 261.819 127.41C261.819 127.998 261.935 128.511 262.169 128.95C262.402 129.379 262.715 129.71 263.107 129.944C263.499 130.168 263.933 130.28 264.409 130.28C264.885 130.28 265.319 130.168 265.711 129.944C266.112 129.71 266.429 129.379 266.663 128.95C266.896 128.511 267.013 128.002 267.013 127.424ZM272.008 124.652V129.174C272.008 129.547 272.087 129.813 272.246 129.972C272.404 130.121 272.68 130.196 273.072 130.196H274.01V131.274H272.862C272.152 131.274 271.62 131.11 271.266 130.784C270.911 130.457 270.734 129.92 270.734 129.174V124.652H269.74V123.602H270.734V121.67H272.008V123.602H274.01V124.652H272.008ZM279.361 123.462C279.94 123.462 280.463 123.588 280.929 123.84C281.396 124.082 281.76 124.451 282.021 124.946C282.292 125.44 282.427 126.042 282.427 126.752V131.274H281.167V126.934C281.167 126.168 280.976 125.585 280.593 125.184C280.211 124.773 279.688 124.568 279.025 124.568C278.353 124.568 277.817 124.778 277.415 125.198C277.023 125.618 276.827 126.229 276.827 127.032V131.274H275.553V120.914H276.827V124.694C277.079 124.302 277.425 123.998 277.863 123.784C278.311 123.569 278.811 123.462 279.361 123.462ZM291.508 127.144C291.508 127.386 291.494 127.643 291.466 127.914H285.334C285.381 128.67 285.638 129.262 286.104 129.692C286.58 130.112 287.154 130.322 287.826 130.322C288.377 130.322 288.834 130.196 289.198 129.944C289.572 129.682 289.833 129.337 289.982 128.908H291.354C291.149 129.645 290.738 130.247 290.122 130.714C289.506 131.171 288.741 131.4 287.826 131.4C287.098 131.4 286.445 131.236 285.866 130.91C285.297 130.583 284.849 130.121 284.522 129.524C284.196 128.917 284.032 128.217 284.032 127.424C284.032 126.63 284.191 125.935 284.508 125.338C284.826 124.74 285.269 124.283 285.838 123.966C286.417 123.639 287.08 123.476 287.826 123.476C288.554 123.476 289.198 123.634 289.758 123.952C290.318 124.269 290.748 124.708 291.046 125.268C291.354 125.818 291.508 126.444 291.508 127.144ZM290.192 126.878C290.192 126.392 290.085 125.977 289.87 125.632C289.656 125.277 289.362 125.011 288.988 124.834C288.624 124.647 288.218 124.554 287.77 124.554C287.126 124.554 286.576 124.759 286.118 125.17C285.67 125.58 285.414 126.15 285.348 126.878H290.192ZM302.416 123.462C303.013 123.462 303.545 123.588 304.012 123.84C304.479 124.082 304.847 124.451 305.118 124.946C305.389 125.44 305.524 126.042 305.524 126.752V131.274H304.264V126.934C304.264 126.168 304.073 125.585 303.69 125.184C303.317 124.773 302.808 124.568 302.164 124.568C301.501 124.568 300.974 124.782 300.582 125.212C300.19 125.632 299.994 126.243 299.994 127.046V131.274H298.734V126.934C298.734 126.168 298.543 125.585 298.16 125.184C297.787 124.773 297.278 124.568 296.634 124.568C295.971 124.568 295.444 124.782 295.052 125.212C294.66 125.632 294.464 126.243 294.464 127.046V131.274H293.19V123.602H294.464V124.708C294.716 124.306 295.052 123.998 295.472 123.784C295.901 123.569 296.373 123.462 296.886 123.462C297.53 123.462 298.099 123.606 298.594 123.896C299.089 124.185 299.457 124.61 299.7 125.17C299.915 124.628 300.269 124.208 300.764 123.91C301.259 123.611 301.809 123.462 302.416 123.462ZM307.138 127.41C307.138 126.626 307.297 125.94 307.614 125.352C307.931 124.754 308.365 124.292 308.916 123.966C309.476 123.639 310.097 123.476 310.778 123.476C311.45 123.476 312.033 123.62 312.528 123.91C313.023 124.199 313.391 124.563 313.634 125.002V123.602H314.922V131.274H313.634V129.846C313.382 130.294 313.004 130.667 312.5 130.966C312.005 131.255 311.427 131.4 310.764 131.4C310.083 131.4 309.467 131.232 308.916 130.896C308.365 130.56 307.931 130.088 307.614 129.482C307.297 128.875 307.138 128.184 307.138 127.41ZM313.634 127.424C313.634 126.845 313.517 126.341 313.284 125.912C313.051 125.482 312.733 125.156 312.332 124.932C311.94 124.698 311.506 124.582 311.03 124.582C310.554 124.582 310.12 124.694 309.728 124.918C309.336 125.142 309.023 125.468 308.79 125.898C308.557 126.327 308.44 126.831 308.44 127.41C308.44 127.998 308.557 128.511 308.79 128.95C309.023 129.379 309.336 129.71 309.728 129.944C310.12 130.168 310.554 130.28 311.03 130.28C311.506 130.28 311.94 130.168 312.332 129.944C312.733 129.71 313.051 129.379 313.284 128.95C313.517 128.511 313.634 128.002 313.634 127.424ZM318.629 124.652V129.174C318.629 129.547 318.708 129.813 318.867 129.972C319.025 130.121 319.301 130.196 319.693 130.196H320.631V131.274H319.483C318.773 131.274 318.241 131.11 317.887 130.784C317.532 130.457 317.355 129.92 317.355 129.174V124.652H316.361V123.602H317.355V121.67H318.629V123.602H320.631V124.652H318.629ZM322.832 122.356C322.59 122.356 322.384 122.272 322.216 122.104C322.048 121.936 321.964 121.73 321.964 121.488C321.964 121.245 322.048 121.04 322.216 120.872C322.384 120.704 322.59 120.62 322.832 120.62C323.066 120.62 323.262 120.704 323.42 120.872C323.588 121.04 323.672 121.245 323.672 121.488C323.672 121.73 323.588 121.936 323.42 122.104C323.262 122.272 323.066 122.356 322.832 122.356ZM323.448 123.602V131.274H322.174V123.602H323.448ZM325.144 127.424C325.144 126.63 325.302 125.94 325.62 125.352C325.937 124.754 326.376 124.292 326.936 123.966C327.505 123.639 328.154 123.476 328.882 123.476C329.824 123.476 330.599 123.704 331.206 124.162C331.822 124.619 332.228 125.254 332.424 126.066H331.052C330.921 125.599 330.664 125.23 330.282 124.96C329.908 124.689 329.442 124.554 328.882 124.554C328.154 124.554 327.566 124.806 327.118 125.31C326.67 125.804 326.446 126.509 326.446 127.424C326.446 128.348 326.67 129.062 327.118 129.566C327.566 130.07 328.154 130.322 328.882 130.322C329.442 130.322 329.908 130.191 330.282 129.93C330.655 129.668 330.912 129.295 331.052 128.81H332.424C332.218 129.594 331.808 130.224 331.192 130.7C330.576 131.166 329.806 131.4 328.882 131.4C328.154 131.4 327.505 131.236 326.936 130.91C326.376 130.583 325.937 130.121 325.62 129.524C325.302 128.926 325.144 128.226 325.144 127.424ZM336.84 131.4C336.252 131.4 335.724 131.302 335.258 131.106C334.791 130.9 334.422 130.62 334.152 130.266C333.881 129.902 333.732 129.486 333.704 129.02H335.02C335.057 129.402 335.234 129.715 335.552 129.958C335.878 130.2 336.303 130.322 336.826 130.322C337.311 130.322 337.694 130.214 337.974 130C338.254 129.785 338.394 129.514 338.394 129.188C338.394 128.852 338.244 128.604 337.946 128.446C337.647 128.278 337.185 128.114 336.56 127.956C335.99 127.806 335.524 127.657 335.16 127.508C334.805 127.349 334.497 127.12 334.236 126.822C333.984 126.514 333.858 126.112 333.858 125.618C333.858 125.226 333.974 124.866 334.208 124.54C334.441 124.213 334.772 123.956 335.202 123.77C335.631 123.574 336.121 123.476 336.672 123.476C337.521 123.476 338.207 123.69 338.73 124.12C339.252 124.549 339.532 125.137 339.57 125.884H338.296C338.268 125.482 338.104 125.16 337.806 124.918C337.516 124.675 337.124 124.554 336.63 124.554C336.172 124.554 335.808 124.652 335.538 124.848C335.267 125.044 335.132 125.3 335.132 125.618C335.132 125.87 335.211 126.08 335.37 126.248C335.538 126.406 335.743 126.537 335.986 126.64C336.238 126.733 336.583 126.84 337.022 126.962C337.572 127.111 338.02 127.26 338.366 127.41C338.711 127.55 339.005 127.764 339.248 128.054C339.5 128.343 339.63 128.721 339.64 129.188C339.64 129.608 339.523 129.986 339.29 130.322C339.056 130.658 338.725 130.924 338.296 131.12C337.876 131.306 337.39 131.4 336.84 131.4ZM345.829 122.356C345.586 122.356 345.381 122.272 345.213 122.104C345.045 121.936 344.961 121.73 344.961 121.488C344.961 121.245 345.045 121.04 345.213 120.872C345.381 120.704 345.586 120.62 345.829 120.62C346.062 120.62 346.258 120.704 346.417 120.872C346.585 121.04 346.669 121.245 346.669 121.488C346.669 121.73 346.585 121.936 346.417 122.104C346.258 122.272 346.062 122.356 345.829 122.356ZM346.445 123.602V131.274H345.171V123.602H346.445ZM351.332 131.4C350.744 131.4 350.217 131.302 349.75 131.106C349.283 130.9 348.915 130.62 348.644 130.266C348.373 129.902 348.224 129.486 348.196 129.02H349.512C349.549 129.402 349.727 129.715 350.044 129.958C350.371 130.2 350.795 130.322 351.318 130.322C351.803 130.322 352.186 130.214 352.466 130C352.746 129.785 352.886 129.514 352.886 129.188C352.886 128.852 352.737 128.604 352.438 128.446C352.139 128.278 351.677 128.114 351.052 127.956C350.483 127.806 350.016 127.657 349.652 127.508C349.297 127.349 348.989 127.12 348.728 126.822C348.476 126.514 348.35 126.112 348.35 125.618C348.35 125.226 348.467 124.866 348.7 124.54C348.933 124.213 349.265 123.956 349.694 123.77C350.123 123.574 350.613 123.476 351.164 123.476C352.013 123.476 352.699 123.69 353.222 124.12C353.745 124.549 354.025 125.137 354.062 125.884H352.788C352.76 125.482 352.597 125.16 352.298 124.918C352.009 124.675 351.617 124.554 351.122 124.554C350.665 124.554 350.301 124.652 350.03 124.848C349.759 125.044 349.624 125.3 349.624 125.618C349.624 125.87 349.703 126.08 349.862 126.248C350.03 126.406 350.235 126.537 350.478 126.64C350.73 126.733 351.075 126.84 351.514 126.962C352.065 127.111 352.513 127.26 352.858 127.41C353.203 127.55 353.497 127.764 353.74 128.054C353.992 128.343 354.123 128.721 354.132 129.188C354.132 129.608 354.015 129.986 353.782 130.322C353.549 130.658 353.217 130.924 352.788 131.12C352.368 131.306 351.883 131.4 351.332 131.4ZM363.401 123.462C364.334 123.462 365.09 123.746 365.669 124.316C366.247 124.876 366.537 125.688 366.537 126.752V131.274H365.277V126.934C365.277 126.168 365.085 125.585 364.703 125.184C364.32 124.773 363.797 124.568 363.135 124.568C362.463 124.568 361.926 124.778 361.525 125.198C361.133 125.618 360.937 126.229 360.937 127.032V131.274H359.663V123.602H360.937V124.694C361.189 124.302 361.529 123.998 361.959 123.784C362.397 123.569 362.878 123.462 363.401 123.462ZM371.964 131.4C371.245 131.4 370.592 131.236 370.004 130.91C369.425 130.583 368.968 130.121 368.632 129.524C368.305 128.917 368.142 128.217 368.142 127.424C368.142 126.64 368.31 125.949 368.646 125.352C368.991 124.745 369.458 124.283 370.046 123.966C370.634 123.639 371.292 123.476 372.02 123.476C372.748 123.476 373.406 123.639 373.994 123.966C374.582 124.283 375.044 124.74 375.38 125.338C375.725 125.935 375.898 126.63 375.898 127.424C375.898 128.217 375.72 128.917 375.366 129.524C375.02 130.121 374.549 130.583 373.952 130.91C373.354 131.236 372.692 131.4 371.964 131.4ZM371.964 130.28C372.421 130.28 372.85 130.172 373.252 129.958C373.653 129.743 373.975 129.421 374.218 128.992C374.47 128.562 374.596 128.04 374.596 127.424C374.596 126.808 374.474 126.285 374.232 125.856C373.989 125.426 373.672 125.109 373.28 124.904C372.888 124.689 372.463 124.582 372.006 124.582C371.539 124.582 371.11 124.689 370.718 124.904C370.335 125.109 370.027 125.426 369.794 125.856C369.56 126.285 369.444 126.808 369.444 127.424C369.444 128.049 369.556 128.576 369.78 129.006C370.013 129.435 370.321 129.757 370.704 129.972C371.086 130.177 371.506 130.28 371.964 130.28ZM379.127 124.652V129.174C379.127 129.547 379.206 129.813 379.365 129.972C379.524 130.121 379.799 130.196 380.191 130.196H381.129V131.274H379.981C379.272 131.274 378.74 131.11 378.385 130.784C378.03 130.457 377.853 129.92 377.853 129.174V124.652H376.859V123.602H377.853V121.67H379.127V123.602H381.129V124.652H379.127ZM385.929 127.41C385.929 126.626 386.088 125.94 386.405 125.352C386.722 124.754 387.156 124.292 387.707 123.966C388.267 123.639 388.888 123.476 389.569 123.476C390.241 123.476 390.824 123.62 391.319 123.91C391.814 124.199 392.182 124.563 392.425 125.002V123.602H393.713V131.274H392.425V129.846C392.173 130.294 391.795 130.667 391.291 130.966C390.796 131.255 390.218 131.4 389.555 131.4C388.874 131.4 388.258 131.232 387.707 130.896C387.156 130.56 386.722 130.088 386.405 129.482C386.088 128.875 385.929 128.184 385.929 127.41ZM392.425 127.424C392.425 126.845 392.308 126.341 392.075 125.912C391.842 125.482 391.524 125.156 391.123 124.932C390.731 124.698 390.297 124.582 389.821 124.582C389.345 124.582 388.911 124.694 388.519 124.918C388.127 125.142 387.814 125.468 387.581 125.898C387.348 126.327 387.231 126.831 387.231 127.41C387.231 127.998 387.348 128.511 387.581 128.95C387.814 129.379 388.127 129.71 388.519 129.944C388.911 130.168 389.345 130.28 389.821 130.28C390.297 130.28 390.731 130.168 391.123 129.944C391.524 129.71 391.842 129.379 392.075 128.95C392.308 128.511 392.425 128.002 392.425 127.424ZM397.14 125.03C397.401 124.572 397.784 124.199 398.288 123.91C398.792 123.62 399.366 123.476 400.01 123.476C400.701 123.476 401.321 123.639 401.872 123.966C402.423 124.292 402.857 124.754 403.174 125.352C403.491 125.94 403.65 126.626 403.65 127.41C403.65 128.184 403.491 128.875 403.174 129.482C402.857 130.088 402.418 130.56 401.858 130.896C401.307 131.232 400.691 131.4 400.01 131.4C399.347 131.4 398.764 131.255 398.26 130.966C397.765 130.676 397.392 130.308 397.14 129.86V131.274H395.866V120.914H397.14V125.03ZM402.348 127.41C402.348 126.831 402.231 126.327 401.998 125.898C401.765 125.468 401.447 125.142 401.046 124.918C400.654 124.694 400.22 124.582 399.744 124.582C399.277 124.582 398.843 124.698 398.442 124.932C398.05 125.156 397.733 125.487 397.49 125.926C397.257 126.355 397.14 126.854 397.14 127.424C397.14 128.002 397.257 128.511 397.49 128.95C397.733 129.379 398.05 129.71 398.442 129.944C398.843 130.168 399.277 130.28 399.744 130.28C400.22 130.28 400.654 130.168 401.046 129.944C401.447 129.71 401.765 129.379 401.998 128.95C402.231 128.511 402.348 127.998 402.348 127.41ZM408.673 131.4C407.954 131.4 407.301 131.236 406.713 130.91C406.134 130.583 405.677 130.121 405.341 129.524C405.014 128.917 404.851 128.217 404.851 127.424C404.851 126.64 405.019 125.949 405.355 125.352C405.7 124.745 406.167 124.283 406.755 123.966C407.343 123.639 408.001 123.476 408.729 123.476C409.457 123.476 410.115 123.639 410.703 123.966C411.291 124.283 411.753 124.74 412.089 125.338C412.434 125.935 412.607 126.63 412.607 127.424C412.607 128.217 412.429 128.917 412.075 129.524C411.729 130.121 411.258 130.583 410.661 130.91C410.063 131.236 409.401 131.4 408.673 131.4ZM408.673 130.28C409.13 130.28 409.559 130.172 409.961 129.958C410.362 129.743 410.684 129.421 410.927 128.992C411.179 128.562 411.305 128.04 411.305 127.424C411.305 126.808 411.183 126.285 410.941 125.856C410.698 125.426 410.381 125.109 409.989 124.904C409.597 124.689 409.172 124.582 408.715 124.582C408.248 124.582 407.819 124.689 407.427 124.904C407.044 125.109 406.736 125.426 406.503 125.856C406.269 126.285 406.153 126.808 406.153 127.424C406.153 128.049 406.265 128.576 406.489 129.006C406.722 129.435 407.03 129.757 407.413 129.972C407.795 130.177 408.215 130.28 408.673 130.28ZM421.086 123.602V131.274H419.812V130.14C419.569 130.532 419.229 130.84 418.79 131.064C418.361 131.278 417.885 131.386 417.362 131.386C416.765 131.386 416.228 131.264 415.752 131.022C415.276 130.77 414.898 130.396 414.618 129.902C414.347 129.407 414.212 128.805 414.212 128.096V123.602H415.472V127.928C415.472 128.684 415.663 129.267 416.046 129.678C416.429 130.079 416.951 130.28 417.614 130.28C418.295 130.28 418.832 130.07 419.224 129.65C419.616 129.23 419.812 128.618 419.812 127.816V123.602H421.086ZM424.791 124.652V129.174C424.791 129.547 424.87 129.813 425.029 129.972C425.188 130.121 425.463 130.196 425.855 130.196H426.793V131.274H425.645C424.936 131.274 424.404 131.11 424.049 130.784C423.694 130.457 423.517 129.92 423.517 129.174V124.652H422.523V123.602H423.517V121.67H424.791V123.602H426.793V124.652H424.791ZM435.807 123.462C436.74 123.462 437.496 123.746 438.075 124.316C438.654 124.876 438.943 125.688 438.943 126.752V131.274H437.683V126.934C437.683 126.168 437.492 125.585 437.109 125.184C436.726 124.773 436.204 124.568 435.541 124.568C434.869 124.568 434.332 124.778 433.931 125.198C433.539 125.618 433.343 126.229 433.343 127.032V131.274H432.069V123.602H433.343V124.694C433.595 124.302 433.936 123.998 434.365 123.784C434.804 123.569 435.284 123.462 435.807 123.462ZM447.828 123.602V131.274H446.554V130.14C446.311 130.532 445.971 130.84 445.532 131.064C445.103 131.278 444.627 131.386 444.104 131.386C443.507 131.386 442.97 131.264 442.494 131.022C442.018 130.77 441.64 130.396 441.36 129.902C441.089 129.407 440.954 128.805 440.954 128.096V123.602H442.214V127.928C442.214 128.684 442.405 129.267 442.788 129.678C443.171 130.079 443.693 130.28 444.356 130.28C445.037 130.28 445.574 130.07 445.966 129.65C446.358 129.23 446.554 128.618 446.554 127.816V123.602H447.828ZM459.205 123.462C459.802 123.462 460.334 123.588 460.801 123.84C461.268 124.082 461.636 124.451 461.907 124.946C462.178 125.44 462.313 126.042 462.313 126.752V131.274H461.053V126.934C461.053 126.168 460.862 125.585 460.479 125.184C460.106 124.773 459.597 124.568 458.953 124.568C458.29 124.568 457.763 124.782 457.371 125.212C456.979 125.632 456.783 126.243 456.783 127.046V131.274H455.523V126.934C455.523 126.168 455.332 125.585 454.949 125.184C454.576 124.773 454.067 124.568 453.423 124.568C452.76 124.568 452.233 124.782 451.841 125.212C451.449 125.632 451.253 126.243 451.253 127.046V131.274H449.979V123.602H451.253V124.708C451.505 124.306 451.841 123.998 452.261 123.784C452.69 123.569 453.162 123.462 453.675 123.462C454.319 123.462 454.888 123.606 455.383 123.896C455.878 124.185 456.246 124.61 456.489 125.17C456.704 124.628 457.058 124.208 457.553 123.91C458.048 123.611 458.598 123.462 459.205 123.462ZM465.677 125.03C465.938 124.572 466.321 124.199 466.825 123.91C467.329 123.62 467.903 123.476 468.547 123.476C469.238 123.476 469.858 123.639 470.409 123.966C470.96 124.292 471.394 124.754 471.711 125.352C472.028 125.94 472.187 126.626 472.187 127.41C472.187 128.184 472.028 128.875 471.711 129.482C471.394 130.088 470.955 130.56 470.395 130.896C469.844 131.232 469.228 131.4 468.547 131.4C467.884 131.4 467.301 131.255 466.797 130.966C466.302 130.676 465.929 130.308 465.677 129.86V131.274H464.403V120.914H465.677V125.03ZM470.885 127.41C470.885 126.831 470.768 126.327 470.535 125.898C470.302 125.468 469.984 125.142 469.583 124.918C469.191 124.694 468.757 124.582 468.281 124.582C467.814 124.582 467.38 124.698 466.979 124.932C466.587 125.156 466.27 125.487 466.027 125.926C465.794 126.355 465.677 126.854 465.677 127.424C465.677 128.002 465.794 128.511 466.027 128.95C466.27 129.379 466.587 129.71 466.979 129.944C467.38 130.168 467.814 130.28 468.281 130.28C468.757 130.28 469.191 130.168 469.583 129.944C469.984 129.71 470.302 129.379 470.535 128.95C470.768 128.511 470.885 127.998 470.885 127.41ZM480.864 127.144C480.864 127.386 480.85 127.643 480.822 127.914H474.69C474.737 128.67 474.993 129.262 475.46 129.692C475.936 130.112 476.51 130.322 477.182 130.322C477.733 130.322 478.19 130.196 478.554 129.944C478.927 129.682 479.189 129.337 479.338 128.908H480.71C480.505 129.645 480.094 130.247 479.478 130.714C478.862 131.171 478.097 131.4 477.182 131.4C476.454 131.4 475.801 131.236 475.222 130.91C474.653 130.583 474.205 130.121 473.878 129.524C473.551 128.917 473.388 128.217 473.388 127.424C473.388 126.63 473.547 125.935 473.864 125.338C474.181 124.74 474.625 124.283 475.194 123.966C475.773 123.639 476.435 123.476 477.182 123.476C477.91 123.476 478.554 123.634 479.114 123.952C479.674 124.269 480.103 124.708 480.402 125.268C480.71 125.818 480.864 126.444 480.864 127.144ZM479.548 126.878C479.548 126.392 479.441 125.977 479.226 125.632C479.011 125.277 478.717 125.011 478.344 124.834C477.98 124.647 477.574 124.554 477.126 124.554C476.482 124.554 475.931 124.759 475.474 125.17C475.026 125.58 474.769 126.15 474.704 126.878H479.548ZM483.82 124.848C484.044 124.409 484.361 124.068 484.772 123.826C485.192 123.583 485.7 123.462 486.298 123.462V124.778H485.962C484.534 124.778 483.82 125.552 483.82 127.102V131.274H482.546V123.602H483.82V124.848ZM490.484 131.4C489.896 131.4 489.369 131.302 488.902 131.106C488.436 130.9 488.067 130.62 487.796 130.266C487.526 129.902 487.376 129.486 487.348 129.02H488.664C488.702 129.402 488.879 129.715 489.196 129.958C489.523 130.2 489.948 130.322 490.47 130.322C490.956 130.322 491.338 130.214 491.618 130C491.898 129.785 492.038 129.514 492.038 129.188C492.038 128.852 491.889 128.604 491.59 128.446C491.292 128.278 490.83 128.114 490.204 127.956C489.635 127.806 489.168 127.657 488.804 127.508C488.45 127.349 488.142 127.12 487.88 126.822C487.628 126.514 487.502 126.112 487.502 125.618C487.502 125.226 487.619 124.866 487.852 124.54C488.086 124.213 488.417 123.956 488.846 123.77C489.276 123.574 489.766 123.476 490.316 123.476C491.166 123.476 491.852 123.69 492.374 124.12C492.897 124.549 493.177 125.137 493.214 125.884H491.94C491.912 125.482 491.749 125.16 491.45 124.918C491.161 124.675 490.769 124.554 490.274 124.554C489.817 124.554 489.453 124.652 489.182 124.848C488.912 125.044 488.776 125.3 488.776 125.618C488.776 125.87 488.856 126.08 489.014 126.248C489.182 126.406 489.388 126.537 489.63 126.64C489.882 126.733 490.228 126.84 490.666 126.962C491.217 127.111 491.665 127.26 492.01 127.41C492.356 127.55 492.65 127.764 492.892 128.054C493.144 128.343 493.275 128.721 493.284 129.188C493.284 129.608 493.168 129.986 492.934 130.322C492.701 130.658 492.37 130.924 491.94 131.12C491.52 131.306 491.035 131.4 490.484 131.4ZM496.399 129.51L494.831 133.276H493.977L494.999 129.51H496.399ZM255.934 148.144C255.934 148.386 255.92 148.643 255.892 148.914H249.76C249.807 149.67 250.064 150.262 250.53 150.692C251.006 151.112 251.58 151.322 252.252 151.322C252.803 151.322 253.26 151.196 253.624 150.944C253.998 150.682 254.259 150.337 254.408 149.908H255.78C255.575 150.645 255.164 151.247 254.548 151.714C253.932 152.171 253.167 152.4 252.252 152.4C251.524 152.4 250.871 152.236 250.292 151.91C249.723 151.583 249.275 151.121 248.948 150.524C248.622 149.917 248.458 149.217 248.458 148.424C248.458 147.63 248.617 146.935 248.934 146.338C249.252 145.74 249.695 145.283 250.264 144.966C250.843 144.639 251.506 144.476 252.252 144.476C252.98 144.476 253.624 144.634 254.184 144.952C254.744 145.269 255.174 145.708 255.472 146.268C255.78 146.818 255.934 147.444 255.934 148.144ZM254.618 147.878C254.618 147.392 254.511 146.977 254.296 146.632C254.082 146.277 253.788 146.011 253.414 145.834C253.05 145.647 252.644 145.554 252.196 145.554C251.552 145.554 251.002 145.759 250.544 146.17C250.096 146.58 249.84 147.15 249.774 147.878H254.618ZM257.14 148.41C257.14 147.626 257.299 146.94 257.616 146.352C257.933 145.754 258.367 145.292 258.918 144.966C259.478 144.639 260.103 144.476 260.794 144.476C261.457 144.476 262.035 144.625 262.53 144.924C263.034 145.213 263.403 145.572 263.636 146.002V144.602H264.924V155.914H263.636V150.86C263.393 151.289 263.02 151.653 262.516 151.952C262.012 152.25 261.424 152.4 260.752 152.4C260.08 152.4 259.469 152.232 258.918 151.896C258.367 151.56 257.933 151.088 257.616 150.482C257.299 149.875 257.14 149.184 257.14 148.41ZM263.636 148.424C263.636 147.845 263.519 147.341 263.286 146.912C263.053 146.482 262.735 146.156 262.334 145.932C261.942 145.698 261.508 145.582 261.032 145.582C260.556 145.582 260.122 145.694 259.73 145.918C259.338 146.142 259.025 146.468 258.792 146.898C258.559 147.327 258.442 147.831 258.442 148.41C258.442 148.998 258.559 149.511 258.792 149.95C259.025 150.379 259.338 150.71 259.73 150.944C260.122 151.168 260.556 151.28 261.032 151.28C261.508 151.28 261.942 151.168 262.334 150.944C262.735 150.71 263.053 150.379 263.286 149.95C263.519 149.511 263.636 149.002 263.636 148.424ZM273.881 144.602V152.274H272.607V151.14C272.364 151.532 272.023 151.84 271.585 152.064C271.155 152.278 270.679 152.386 270.157 152.386C269.559 152.386 269.023 152.264 268.547 152.022C268.071 151.77 267.693 151.396 267.413 150.902C267.142 150.407 267.007 149.805 267.007 149.096V144.602H268.267V148.928C268.267 149.684 268.458 150.267 268.841 150.678C269.223 151.079 269.746 151.28 270.409 151.28C271.09 151.28 271.627 151.07 272.019 150.65C272.411 150.23 272.607 149.618 272.607 148.816V144.602H273.881ZM275.556 148.41C275.556 147.626 275.715 146.94 276.032 146.352C276.349 145.754 276.783 145.292 277.334 144.966C277.894 144.639 278.515 144.476 279.196 144.476C279.868 144.476 280.451 144.62 280.946 144.91C281.441 145.199 281.809 145.563 282.052 146.002V144.602H283.34V152.274H282.052V150.846C281.8 151.294 281.422 151.667 280.918 151.966C280.423 152.255 279.845 152.4 279.182 152.4C278.501 152.4 277.885 152.232 277.334 151.896C276.783 151.56 276.349 151.088 276.032 150.482C275.715 149.875 275.556 149.184 275.556 148.41ZM282.052 148.424C282.052 147.845 281.935 147.341 281.702 146.912C281.469 146.482 281.151 146.156 280.75 145.932C280.358 145.698 279.924 145.582 279.448 145.582C278.972 145.582 278.538 145.694 278.146 145.918C277.754 146.142 277.441 146.468 277.208 146.898C276.975 147.327 276.858 147.831 276.858 148.41C276.858 148.998 276.975 149.511 277.208 149.95C277.441 150.379 277.754 150.71 278.146 150.944C278.538 151.168 278.972 151.28 279.448 151.28C279.924 151.28 280.358 151.168 280.75 150.944C281.151 150.71 281.469 150.379 281.702 149.95C281.935 149.511 282.052 149.002 282.052 148.424ZM287.047 145.652V150.174C287.047 150.547 287.126 150.813 287.285 150.972C287.443 151.121 287.719 151.196 288.111 151.196H289.049V152.274H287.901C287.191 152.274 286.659 152.11 286.305 151.784C285.95 151.457 285.773 150.92 285.773 150.174V145.652H284.779V144.602H285.773V142.67H287.047V144.602H289.049V145.652H287.047ZM291.25 143.356C291.008 143.356 290.802 143.272 290.634 143.104C290.466 142.936 290.382 142.73 290.382 142.488C290.382 142.245 290.466 142.04 290.634 141.872C290.802 141.704 291.008 141.62 291.25 141.62C291.484 141.62 291.68 141.704 291.838 141.872C292.006 142.04 292.09 142.245 292.09 142.488C292.09 142.73 292.006 142.936 291.838 143.104C291.68 143.272 291.484 143.356 291.25 143.356ZM291.866 144.602V152.274H290.592V144.602H291.866ZM297.384 152.4C296.665 152.4 296.012 152.236 295.424 151.91C294.845 151.583 294.388 151.121 294.052 150.524C293.725 149.917 293.562 149.217 293.562 148.424C293.562 147.64 293.73 146.949 294.066 146.352C294.411 145.745 294.878 145.283 295.466 144.966C296.054 144.639 296.712 144.476 297.44 144.476C298.168 144.476 298.826 144.639 299.414 144.966C300.002 145.283 300.464 145.74 300.8 146.338C301.145 146.935 301.318 147.63 301.318 148.424C301.318 149.217 301.14 149.917 300.786 150.524C300.44 151.121 299.969 151.583 299.372 151.91C298.774 152.236 298.112 152.4 297.384 152.4ZM297.384 151.28C297.841 151.28 298.27 151.172 298.672 150.958C299.073 150.743 299.395 150.421 299.638 149.992C299.89 149.562 300.016 149.04 300.016 148.424C300.016 147.808 299.894 147.285 299.652 146.856C299.409 146.426 299.092 146.109 298.7 145.904C298.308 145.689 297.883 145.582 297.426 145.582C296.959 145.582 296.53 145.689 296.138 145.904C295.755 146.109 295.447 146.426 295.214 146.856C294.98 147.285 294.864 147.808 294.864 148.424C294.864 149.049 294.976 149.576 295.2 150.006C295.433 150.435 295.741 150.757 296.124 150.972C296.506 151.177 296.926 151.28 297.384 151.28ZM306.731 144.462C307.664 144.462 308.42 144.746 308.999 145.316C309.577 145.876 309.867 146.688 309.867 147.752V152.274H308.607V147.934C308.607 147.168 308.415 146.585 308.033 146.184C307.65 145.773 307.127 145.568 306.465 145.568C305.793 145.568 305.256 145.778 304.855 146.198C304.463 146.618 304.267 147.229 304.267 148.032V152.274H302.993V144.602H304.267V145.694C304.519 145.302 304.859 144.998 305.289 144.784C305.727 144.569 306.208 144.462 306.731 144.462ZM314.664 152.4C314.076 152.4 313.549 152.302 313.082 152.106C312.615 151.9 312.247 151.62 311.976 151.266C311.705 150.902 311.556 150.486 311.528 150.02H312.844C312.881 150.402 313.059 150.715 313.376 150.958C313.703 151.2 314.127 151.322 314.65 151.322C315.135 151.322 315.518 151.214 315.798 151C316.078 150.785 316.218 150.514 316.218 150.188C316.218 149.852 316.069 149.604 315.77 149.446C315.471 149.278 315.009 149.114 314.384 148.956C313.815 148.806 313.348 148.657 312.984 148.508C312.629 148.349 312.321 148.12 312.06 147.822C311.808 147.514 311.682 147.112 311.682 146.618C311.682 146.226 311.799 145.866 312.032 145.54C312.265 145.213 312.597 144.956 313.026 144.77C313.455 144.574 313.945 144.476 314.496 144.476C315.345 144.476 316.031 144.69 316.554 145.12C317.077 145.549 317.357 146.137 317.394 146.884H316.12C316.092 146.482 315.929 146.16 315.63 145.918C315.341 145.675 314.949 145.554 314.454 145.554C313.997 145.554 313.633 145.652 313.362 145.848C313.091 146.044 312.956 146.3 312.956 146.618C312.956 146.87 313.035 147.08 313.194 147.248C313.362 147.406 313.567 147.537 313.81 147.64C314.062 147.733 314.407 147.84 314.846 147.962C315.397 148.111 315.845 148.26 316.19 148.41C316.535 148.55 316.829 148.764 317.072 149.054C317.324 149.343 317.455 149.721 317.464 150.188C317.464 150.608 317.347 150.986 317.114 151.322C316.881 151.658 316.549 151.924 316.12 152.12C315.7 152.306 315.215 152.4 314.664 152.4ZM320.578 150.51L319.01 154.276H318.156L319.178 150.51H320.578ZM325.294 148.424C325.294 147.63 325.453 146.94 325.77 146.352C326.087 145.754 326.526 145.292 327.086 144.966C327.655 144.639 328.304 144.476 329.032 144.476C329.975 144.476 330.749 144.704 331.356 145.162C331.972 145.619 332.378 146.254 332.574 147.066H331.202C331.071 146.599 330.815 146.23 330.432 145.96C330.059 145.689 329.592 145.554 329.032 145.554C328.304 145.554 327.716 145.806 327.268 146.31C326.82 146.804 326.596 147.509 326.596 148.424C326.596 149.348 326.82 150.062 327.268 150.566C327.716 151.07 328.304 151.322 329.032 151.322C329.592 151.322 330.059 151.191 330.432 150.93C330.805 150.668 331.062 150.295 331.202 149.81H332.574C332.369 150.594 331.958 151.224 331.342 151.7C330.726 152.166 329.956 152.4 329.032 152.4C328.304 152.4 327.655 152.236 327.086 151.91C326.526 151.583 326.087 151.121 325.77 150.524C325.453 149.926 325.294 149.226 325.294 148.424ZM337.62 152.4C336.901 152.4 336.248 152.236 335.66 151.91C335.081 151.583 334.624 151.121 334.288 150.524C333.961 149.917 333.798 149.217 333.798 148.424C333.798 147.64 333.966 146.949 334.302 146.352C334.647 145.745 335.114 145.283 335.702 144.966C336.29 144.639 336.948 144.476 337.676 144.476C338.404 144.476 339.062 144.639 339.65 144.966C340.238 145.283 340.7 145.74 341.036 146.338C341.381 146.935 341.554 147.63 341.554 148.424C341.554 149.217 341.377 149.917 341.022 150.524C340.677 151.121 340.205 151.583 339.608 151.91C339.011 152.236 338.348 152.4 337.62 152.4ZM337.62 151.28C338.077 151.28 338.507 151.172 338.908 150.958C339.309 150.743 339.631 150.421 339.874 149.992C340.126 149.562 340.252 149.04 340.252 148.424C340.252 147.808 340.131 147.285 339.888 146.856C339.645 146.426 339.328 146.109 338.936 145.904C338.544 145.689 338.119 145.582 337.662 145.582C337.195 145.582 336.766 145.689 336.374 145.904C335.991 146.109 335.683 146.426 335.45 146.856C335.217 147.285 335.1 147.808 335.1 148.424C335.1 149.049 335.212 149.576 335.436 150.006C335.669 150.435 335.977 150.757 336.36 150.972C336.743 151.177 337.163 151.28 337.62 151.28ZM352.455 144.462C353.052 144.462 353.584 144.588 354.051 144.84C354.518 145.082 354.886 145.451 355.157 145.946C355.428 146.44 355.563 147.042 355.563 147.752V152.274H354.303V147.934C354.303 147.168 354.112 146.585 353.729 146.184C353.356 145.773 352.847 145.568 352.203 145.568C351.54 145.568 351.013 145.782 350.621 146.212C350.229 146.632 350.033 147.243 350.033 148.046V152.274H348.773V147.934C348.773 147.168 348.582 146.585 348.199 146.184C347.826 145.773 347.317 145.568 346.673 145.568C346.01 145.568 345.483 145.782 345.091 146.212C344.699 146.632 344.503 147.243 344.503 148.046V152.274H343.229V144.602H344.503V145.708C344.755 145.306 345.091 144.998 345.511 144.784C345.94 144.569 346.412 144.462 346.925 144.462C347.569 144.462 348.138 144.606 348.633 144.896C349.128 145.185 349.496 145.61 349.739 146.17C349.954 145.628 350.308 145.208 350.803 144.91C351.298 144.611 351.848 144.462 352.455 144.462ZM358.927 146.016C359.179 145.577 359.552 145.213 360.047 144.924C360.551 144.625 361.134 144.476 361.797 144.476C362.478 144.476 363.094 144.639 363.645 144.966C364.205 145.292 364.644 145.754 364.961 146.352C365.278 146.94 365.437 147.626 365.437 148.41C365.437 149.184 365.278 149.875 364.961 150.482C364.644 151.088 364.205 151.56 363.645 151.896C363.094 152.232 362.478 152.4 361.797 152.4C361.144 152.4 360.565 152.255 360.061 151.966C359.566 151.667 359.188 151.298 358.927 150.86V155.914H357.653V144.602H358.927V146.016ZM364.135 148.41C364.135 147.831 364.018 147.327 363.785 146.898C363.552 146.468 363.234 146.142 362.833 145.918C362.441 145.694 362.007 145.582 361.531 145.582C361.064 145.582 360.63 145.698 360.229 145.932C359.837 146.156 359.52 146.487 359.277 146.926C359.044 147.355 358.927 147.854 358.927 148.424C358.927 149.002 359.044 149.511 359.277 149.95C359.52 150.379 359.837 150.71 360.229 150.944C360.63 151.168 361.064 151.28 361.531 151.28C362.007 151.28 362.441 151.168 362.833 150.944C363.234 150.71 363.552 150.379 363.785 149.95C364.018 149.511 364.135 148.998 364.135 148.41ZM373.918 144.602V152.274H372.644V151.14C372.401 151.532 372.061 151.84 371.622 152.064C371.193 152.278 370.717 152.386 370.194 152.386C369.597 152.386 369.06 152.264 368.584 152.022C368.108 151.77 367.73 151.396 367.45 150.902C367.179 150.407 367.044 149.805 367.044 149.096V144.602H368.304V148.928C368.304 149.684 368.495 150.267 368.878 150.678C369.261 151.079 369.783 151.28 370.446 151.28C371.127 151.28 371.664 151.07 372.056 150.65C372.448 150.23 372.644 149.618 372.644 148.816V144.602H373.918ZM377.623 145.652V150.174C377.623 150.547 377.702 150.813 377.861 150.972C378.02 151.121 378.295 151.196 378.687 151.196H379.625V152.274H378.477C377.768 152.274 377.236 152.11 376.881 151.784C376.526 151.457 376.349 150.92 376.349 150.174V145.652H375.355V144.602H376.349V142.67H377.623V144.602H379.625V145.652H377.623ZM380.693 148.41C380.693 147.626 380.851 146.94 381.169 146.352C381.486 145.754 381.92 145.292 382.471 144.966C383.031 144.639 383.651 144.476 384.333 144.476C385.005 144.476 385.588 144.62 386.083 144.91C386.577 145.199 386.946 145.563 387.189 146.002V144.602H388.477V152.274H387.189V150.846C386.937 151.294 386.559 151.667 386.055 151.966C385.56 152.255 384.981 152.4 384.319 152.4C383.637 152.4 383.021 152.232 382.471 151.896C381.92 151.56 381.486 151.088 381.169 150.482C380.851 149.875 380.693 149.184 380.693 148.41ZM387.189 148.424C387.189 147.845 387.072 147.341 386.839 146.912C386.605 146.482 386.288 146.156 385.887 145.932C385.495 145.698 385.061 145.582 384.585 145.582C384.109 145.582 383.675 145.694 383.283 145.918C382.891 146.142 382.578 146.468 382.345 146.898C382.111 147.327 381.995 147.831 381.995 148.41C381.995 148.998 382.111 149.511 382.345 149.95C382.578 150.379 382.891 150.71 383.283 150.944C383.675 151.168 384.109 151.28 384.585 151.28C385.061 151.28 385.495 151.168 385.887 150.944C386.288 150.71 386.605 150.379 386.839 149.95C387.072 149.511 387.189 149.002 387.189 148.424ZM392.184 145.652V150.174C392.184 150.547 392.263 150.813 392.422 150.972C392.58 151.121 392.856 151.196 393.248 151.196H394.186V152.274H393.038C392.328 152.274 391.796 152.11 391.442 151.784C391.087 151.457 390.91 150.92 390.91 150.174V145.652H389.916V144.602H390.91V142.67H392.184V144.602H394.186V145.652H392.184ZM396.387 143.356C396.144 143.356 395.939 143.272 395.771 143.104C395.603 142.936 395.519 142.73 395.519 142.488C395.519 142.245 395.603 142.04 395.771 141.872C395.939 141.704 396.144 141.62 396.387 141.62C396.62 141.62 396.816 141.704 396.975 141.872C397.143 142.04 397.227 142.245 397.227 142.488C397.227 142.73 397.143 142.936 396.975 143.104C396.816 143.272 396.62 143.356 396.387 143.356ZM397.003 144.602V152.274H395.729V144.602H397.003ZM402.52 152.4C401.802 152.4 401.148 152.236 400.56 151.91C399.982 151.583 399.524 151.121 399.188 150.524C398.862 149.917 398.698 149.217 398.698 148.424C398.698 147.64 398.866 146.949 399.202 146.352C399.548 145.745 400.014 145.283 400.602 144.966C401.19 144.639 401.848 144.476 402.576 144.476C403.304 144.476 403.962 144.639 404.55 144.966C405.138 145.283 405.6 145.74 405.936 146.338C406.282 146.935 406.454 147.63 406.454 148.424C406.454 149.217 406.277 149.917 405.922 150.524C405.577 151.121 405.106 151.583 404.508 151.91C403.911 152.236 403.248 152.4 402.52 152.4ZM402.52 151.28C402.978 151.28 403.407 151.172 403.808 150.958C404.21 150.743 404.532 150.421 404.774 149.992C405.026 149.562 405.152 149.04 405.152 148.424C405.152 147.808 405.031 147.285 404.788 146.856C404.546 146.426 404.228 146.109 403.836 145.904C403.444 145.689 403.02 145.582 402.562 145.582C402.096 145.582 401.666 145.689 401.274 145.904C400.892 146.109 400.584 146.426 400.35 146.856C400.117 147.285 400 147.808 400 148.424C400 149.049 400.112 149.576 400.336 150.006C400.57 150.435 400.878 150.757 401.26 150.972C401.643 151.177 402.063 151.28 402.52 151.28ZM411.868 144.462C412.801 144.462 413.557 144.746 414.136 145.316C414.714 145.876 415.004 146.688 415.004 147.752V152.274H413.744V147.934C413.744 147.168 413.552 146.585 413.17 146.184C412.787 145.773 412.264 145.568 411.602 145.568C410.93 145.568 410.393 145.778 409.992 146.198C409.6 146.618 409.404 147.229 409.404 148.032V152.274H408.13V144.602H409.404V145.694C409.656 145.302 409.996 144.998 410.426 144.784C410.864 144.569 411.345 144.462 411.868 144.462ZM419.801 152.4C419.213 152.4 418.685 152.302 418.219 152.106C417.752 151.9 417.383 151.62 417.113 151.266C416.842 150.902 416.693 150.486 416.665 150.02H417.981C418.018 150.402 418.195 150.715 418.513 150.958C418.839 151.2 419.264 151.322 419.787 151.322C420.272 151.322 420.655 151.214 420.935 151C421.215 150.785 421.355 150.514 421.355 150.188C421.355 149.852 421.205 149.604 420.907 149.446C420.608 149.278 420.146 149.114 419.521 148.956C418.951 148.806 418.485 148.657 418.121 148.508C417.766 148.349 417.458 148.12 417.197 147.822C416.945 147.514 416.819 147.112 416.819 146.618C416.819 146.226 416.935 145.866 417.169 145.54C417.402 145.213 417.733 144.956 418.163 144.77C418.592 144.574 419.082 144.476 419.633 144.476C420.482 144.476 421.168 144.69 421.691 145.12C422.213 145.549 422.493 146.137 422.531 146.884H421.257C421.229 146.482 421.065 146.16 420.767 145.918C420.477 145.675 420.085 145.554 419.591 145.554C419.133 145.554 418.769 145.652 418.499 145.848C418.228 146.044 418.093 146.3 418.093 146.618C418.093 146.87 418.172 147.08 418.331 147.248C418.499 147.406 418.704 147.537 418.947 147.64C419.199 147.733 419.544 147.84 419.983 147.962C420.533 148.111 420.981 148.26 421.327 148.41C421.672 148.55 421.966 148.764 422.209 149.054C422.461 149.343 422.591 149.721 422.601 150.188C422.601 150.608 422.484 150.986 422.251 151.322C422.017 151.658 421.686 151.924 421.257 152.12C420.837 152.306 420.351 152.4 419.801 152.4ZM425.715 150.51L424.147 154.276H423.293L424.315 150.51H425.715ZM434.253 152.4C433.534 152.4 432.881 152.236 432.293 151.91C431.714 151.583 431.257 151.121 430.921 150.524C430.594 149.917 430.431 149.217 430.431 148.424C430.431 147.64 430.599 146.949 430.935 146.352C431.28 145.745 431.747 145.283 432.335 144.966C432.923 144.639 433.581 144.476 434.309 144.476C435.037 144.476 435.695 144.639 436.283 144.966C436.871 145.283 437.333 145.74 437.669 146.338C438.014 146.935 438.187 147.63 438.187 148.424C438.187 149.217 438.01 149.917 437.655 150.524C437.31 151.121 436.838 151.583 436.241 151.91C435.644 152.236 434.981 152.4 434.253 152.4ZM434.253 151.28C434.71 151.28 435.14 151.172 435.541 150.958C435.942 150.743 436.264 150.421 436.507 149.992C436.759 149.562 436.885 149.04 436.885 148.424C436.885 147.808 436.764 147.285 436.521 146.856C436.278 146.426 435.961 146.109 435.569 145.904C435.177 145.689 434.752 145.582 434.295 145.582C433.828 145.582 433.399 145.689 433.007 145.904C432.624 146.109 432.316 146.426 432.083 146.856C431.85 147.285 431.733 147.808 431.733 148.424C431.733 149.049 431.845 149.576 432.069 150.006C432.302 150.435 432.61 150.757 432.993 150.972C433.376 151.177 433.796 151.28 434.253 151.28ZM441.136 145.848C441.36 145.409 441.677 145.068 442.088 144.826C442.508 144.583 443.017 144.462 443.614 144.462V145.778H443.278C441.85 145.778 441.136 146.552 441.136 148.102V152.274H439.862V144.602H441.136V145.848ZM448.341 148.41C448.341 147.626 448.5 146.94 448.817 146.352C449.134 145.754 449.568 145.292 450.119 144.966C450.679 144.639 451.3 144.476 451.981 144.476C452.653 144.476 453.236 144.62 453.731 144.91C454.226 145.199 454.594 145.563 454.837 146.002V144.602H456.125V152.274H454.837V150.846C454.585 151.294 454.207 151.667 453.703 151.966C453.208 152.255 452.63 152.4 451.967 152.4C451.286 152.4 450.67 152.232 450.119 151.896C449.568 151.56 449.134 151.088 448.817 150.482C448.5 149.875 448.341 149.184 448.341 148.41ZM454.837 148.424C454.837 147.845 454.72 147.341 454.487 146.912C454.254 146.482 453.936 146.156 453.535 145.932C453.143 145.698 452.709 145.582 452.233 145.582C451.757 145.582 451.323 145.694 450.931 145.918C450.539 146.142 450.226 146.468 449.993 146.898C449.76 147.327 449.643 147.831 449.643 148.41C449.643 148.998 449.76 149.511 449.993 149.95C450.226 150.379 450.539 150.71 450.931 150.944C451.323 151.168 451.757 151.28 452.233 151.28C452.709 151.28 453.143 151.168 453.535 150.944C453.936 150.71 454.254 150.379 454.487 149.95C454.72 149.511 454.837 149.002 454.837 148.424ZM459.552 141.914V152.274H458.278V141.914H459.552ZM464.887 144.476C465.55 144.476 466.129 144.62 466.623 144.91C467.127 145.199 467.501 145.563 467.743 146.002V144.602H469.031V152.442C469.031 153.142 468.882 153.762 468.583 154.304C468.285 154.854 467.855 155.284 467.295 155.592C466.745 155.9 466.101 156.054 465.363 156.054C464.355 156.054 463.515 155.816 462.843 155.34C462.171 154.864 461.775 154.215 461.653 153.394H462.913C463.053 153.86 463.343 154.234 463.781 154.514C464.22 154.803 464.747 154.948 465.363 154.948C466.063 154.948 466.633 154.728 467.071 154.29C467.519 153.851 467.743 153.235 467.743 152.442V150.832C467.491 151.28 467.118 151.653 466.623 151.952C466.129 152.25 465.55 152.4 464.887 152.4C464.206 152.4 463.585 152.232 463.025 151.896C462.475 151.56 462.041 151.088 461.723 150.482C461.406 149.875 461.247 149.184 461.247 148.41C461.247 147.626 461.406 146.94 461.723 146.352C462.041 145.754 462.475 145.292 463.025 144.966C463.585 144.639 464.206 144.476 464.887 144.476ZM467.743 148.424C467.743 147.845 467.627 147.341 467.393 146.912C467.16 146.482 466.843 146.156 466.441 145.932C466.049 145.698 465.615 145.582 465.139 145.582C464.663 145.582 464.229 145.694 463.837 145.918C463.445 146.142 463.133 146.468 462.899 146.898C462.666 147.327 462.549 147.831 462.549 148.41C462.549 148.998 462.666 149.511 462.899 149.95C463.133 150.379 463.445 150.71 463.837 150.944C464.229 151.168 464.663 151.28 465.139 151.28C465.615 151.28 466.049 151.168 466.441 150.944C466.843 150.71 467.16 150.379 467.393 149.95C467.627 149.511 467.743 149.002 467.743 148.424ZM474.53 152.4C473.812 152.4 473.158 152.236 472.57 151.91C471.992 151.583 471.534 151.121 471.198 150.524C470.872 149.917 470.708 149.217 470.708 148.424C470.708 147.64 470.876 146.949 471.212 146.352C471.558 145.745 472.024 145.283 472.612 144.966C473.2 144.639 473.858 144.476 474.586 144.476C475.314 144.476 475.972 144.639 476.56 144.966C477.148 145.283 477.61 145.74 477.946 146.338C478.292 146.935 478.464 147.63 478.464 148.424C478.464 149.217 478.287 149.917 477.932 150.524C477.587 151.121 477.116 151.583 476.518 151.91C475.921 152.236 475.258 152.4 474.53 152.4ZM474.53 151.28C474.988 151.28 475.417 151.172 475.818 150.958C476.22 150.743 476.542 150.421 476.784 149.992C477.036 149.562 477.162 149.04 477.162 148.424C477.162 147.808 477.041 147.285 476.798 146.856C476.556 146.426 476.238 146.109 475.846 145.904C475.454 145.689 475.03 145.582 474.572 145.582C474.106 145.582 473.676 145.689 473.284 145.904C472.902 146.109 472.594 146.426 472.36 146.856C472.127 147.285 472.01 147.808 472.01 148.424C472.01 149.049 472.122 149.576 472.346 150.006C472.58 150.435 472.888 150.757 473.27 150.972C473.653 151.177 474.073 151.28 474.53 151.28ZM481.413 145.848C481.637 145.409 481.955 145.068 482.365 144.826C482.785 144.583 483.294 144.462 483.891 144.462V145.778H483.555C482.127 145.778 481.413 146.552 481.413 148.102V152.274H480.139V144.602H481.413V145.848ZM486.02 143.356C485.777 143.356 485.572 143.272 485.404 143.104C485.236 142.936 485.152 142.73 485.152 142.488C485.152 142.245 485.236 142.04 485.404 141.872C485.572 141.704 485.777 141.62 486.02 141.62C486.253 141.62 486.449 141.704 486.608 141.872C486.776 142.04 486.86 142.245 486.86 142.488C486.86 142.73 486.776 142.936 486.608 143.104C486.449 143.272 486.253 143.356 486.02 143.356ZM486.636 144.602V152.274H485.362V144.602H486.636ZM490.361 145.652V150.174C490.361 150.547 490.441 150.813 490.599 150.972C490.758 151.121 491.033 151.196 491.425 151.196H492.363V152.274H491.215C490.506 152.274 489.974 152.11 489.619 151.784C489.265 151.457 489.087 150.92 489.087 150.174V145.652H488.093V144.602H489.087V142.67H490.361V144.602H492.363V145.652H490.361ZM497.715 144.462C498.294 144.462 498.816 144.588 499.283 144.84C499.75 145.082 500.114 145.451 500.375 145.946C500.646 146.44 500.781 147.042 500.781 147.752V152.274H499.521V147.934C499.521 147.168 499.33 146.585 498.947 146.184C498.564 145.773 498.042 145.568 497.379 145.568C496.707 145.568 496.17 145.778 495.769 146.198C495.377 146.618 495.181 147.229 495.181 148.032V152.274H493.907V141.914H495.181V145.694C495.433 145.302 495.778 144.998 496.217 144.784C496.665 144.569 497.164 144.462 497.715 144.462ZM512.088 144.462C512.685 144.462 513.217 144.588 513.684 144.84C514.151 145.082 514.519 145.451 514.79 145.946C515.061 146.44 515.196 147.042 515.196 147.752V152.274H513.936V147.934C513.936 147.168 513.745 146.585 513.362 146.184C512.989 145.773 512.48 145.568 511.836 145.568C511.173 145.568 510.646 145.782 510.254 146.212C509.862 146.632 509.666 147.243 509.666 148.046V152.274H508.406V147.934C508.406 147.168 508.215 146.585 507.832 146.184C507.459 145.773 506.95 145.568 506.306 145.568C505.643 145.568 505.116 145.782 504.724 146.212C504.332 146.632 504.136 147.243 504.136 148.046V152.274H502.862V144.602H504.136V145.708C504.388 145.306 504.724 144.998 505.144 144.784C505.573 144.569 506.045 144.462 506.558 144.462C507.202 144.462 507.771 144.606 508.266 144.896C508.761 145.185 509.129 145.61 509.372 146.17C509.587 145.628 509.941 145.208 510.436 144.91C510.931 144.611 511.481 144.462 512.088 144.462ZM520.002 152.4C519.414 152.4 518.886 152.302 518.42 152.106C517.953 151.9 517.584 151.62 517.314 151.266C517.043 150.902 516.894 150.486 516.866 150.02H518.182C518.219 150.402 518.396 150.715 518.714 150.958C519.04 151.2 519.465 151.322 519.988 151.322C520.473 151.322 520.856 151.214 521.136 151C521.416 150.785 521.556 150.514 521.556 150.188C521.556 149.852 521.406 149.604 521.108 149.446C520.809 149.278 520.347 149.114 519.722 148.956C519.152 148.806 518.686 148.657 518.322 148.508C517.967 148.349 517.659 148.12 517.398 147.822C517.146 147.514 517.02 147.112 517.02 146.618C517.02 146.226 517.136 145.866 517.37 145.54C517.603 145.213 517.934 144.956 518.364 144.77C518.793 144.574 519.283 144.476 519.834 144.476C520.683 144.476 521.369 144.69 521.892 145.12C522.414 145.549 522.694 146.137 522.732 146.884H521.458C521.43 146.482 521.266 146.16 520.968 145.918C520.678 145.675 520.286 145.554 519.792 145.554C519.334 145.554 518.97 145.652 518.7 145.848C518.429 146.044 518.294 146.3 518.294 146.618C518.294 146.87 518.373 147.08 518.532 147.248C518.7 147.406 518.905 147.537 519.148 147.64C519.4 147.733 519.745 147.84 520.184 147.962C520.734 148.111 521.182 148.26 521.528 148.41C521.873 148.55 522.167 148.764 522.41 149.054C522.662 149.343 522.792 149.721 522.802 150.188C522.802 150.608 522.685 150.986 522.452 151.322C522.218 151.658 521.887 151.924 521.458 152.12C521.038 152.306 520.552 152.4 520.002 152.4ZM525.006 152.358C524.764 152.358 524.558 152.274 524.39 152.106C524.222 151.938 524.138 151.732 524.138 151.49C524.138 151.247 524.222 151.042 524.39 150.874C524.558 150.706 524.764 150.622 525.006 150.622C525.24 150.622 525.436 150.706 525.594 150.874C525.762 151.042 525.846 151.247 525.846 151.49C525.846 151.732 525.762 151.938 525.594 152.106C525.436 152.274 525.24 152.358 525.006 152.358ZM525.006 146.366C524.764 146.366 524.558 146.282 524.39 146.114C524.222 145.946 524.138 145.74 524.138 145.498C524.138 145.255 524.222 145.05 524.39 144.882C524.558 144.714 524.764 144.63 525.006 144.63C525.24 144.63 525.436 144.714 525.594 144.882C525.762 145.05 525.846 145.255 525.846 145.498C525.846 145.74 525.762 145.946 525.594 146.114C525.436 146.282 525.24 146.366 525.006 146.366ZM532.587 142.516V152.274H531.313V142.516H532.587ZM536.312 145.652V150.174C536.312 150.547 536.392 150.813 536.55 150.972C536.709 151.121 536.984 151.196 537.376 151.196H538.314V152.274H537.166C536.457 152.274 535.925 152.11 535.57 151.784C535.216 151.457 535.038 150.92 535.038 150.174V145.652H534.044V144.602H535.038V142.67H536.312V144.602H538.314V145.652H536.312ZM249.592 164.356C249.35 164.356 249.144 164.272 248.976 164.104C248.808 163.936 248.724 163.73 248.724 163.488C248.724 163.245 248.808 163.04 248.976 162.872C249.144 162.704 249.35 162.62 249.592 162.62C249.826 162.62 250.022 162.704 250.18 162.872C250.348 163.04 250.432 163.245 250.432 163.488C250.432 163.73 250.348 163.936 250.18 164.104C250.022 164.272 249.826 164.356 249.592 164.356ZM250.208 165.602V173.274H248.934V165.602H250.208ZM255.096 173.4C254.508 173.4 253.98 173.302 253.514 173.106C253.047 172.9 252.678 172.62 252.408 172.266C252.137 171.902 251.988 171.486 251.96 171.02H253.276C253.313 171.402 253.49 171.715 253.808 171.958C254.134 172.2 254.559 172.322 255.082 172.322C255.567 172.322 255.95 172.214 256.23 172C256.51 171.785 256.65 171.514 256.65 171.188C256.65 170.852 256.5 170.604 256.202 170.446C255.903 170.278 255.441 170.114 254.816 169.956C254.246 169.806 253.78 169.657 253.416 169.508C253.061 169.349 252.753 169.12 252.492 168.822C252.24 168.514 252.114 168.112 252.114 167.618C252.114 167.226 252.23 166.866 252.464 166.54C252.697 166.213 253.028 165.956 253.458 165.77C253.887 165.574 254.377 165.476 254.928 165.476C255.777 165.476 256.463 165.69 256.986 166.12C257.508 166.549 257.788 167.137 257.826 167.884H256.552C256.524 167.482 256.36 167.16 256.062 166.918C255.772 166.675 255.38 166.554 254.886 166.554C254.428 166.554 254.064 166.652 253.794 166.848C253.523 167.044 253.388 167.3 253.388 167.618C253.388 167.87 253.467 168.08 253.626 168.248C253.794 168.406 253.999 168.537 254.242 168.64C254.494 168.733 254.839 168.84 255.278 168.962C255.828 169.111 256.276 169.26 256.622 169.41C256.967 169.55 257.261 169.764 257.504 170.054C257.756 170.343 257.886 170.721 257.896 171.188C257.896 171.608 257.779 171.986 257.546 172.322C257.312 172.658 256.981 172.924 256.552 173.12C256.132 173.306 255.646 173.4 255.096 173.4ZM262.95 169.41C262.95 168.626 263.109 167.94 263.426 167.352C263.744 166.754 264.178 166.292 264.728 165.966C265.288 165.639 265.909 165.476 266.59 165.476C267.262 165.476 267.846 165.62 268.34 165.91C268.835 166.199 269.204 166.563 269.446 167.002V165.602H270.734V173.274H269.446V171.846C269.194 172.294 268.816 172.667 268.312 172.966C267.818 173.255 267.239 173.4 266.576 173.4C265.895 173.4 265.279 173.232 264.728 172.896C264.178 172.56 263.744 172.088 263.426 171.482C263.109 170.875 262.95 170.184 262.95 169.41ZM269.446 169.424C269.446 168.845 269.33 168.341 269.096 167.912C268.863 167.482 268.546 167.156 268.144 166.932C267.752 166.698 267.318 166.582 266.842 166.582C266.366 166.582 265.932 166.694 265.54 166.918C265.148 167.142 264.836 167.468 264.602 167.898C264.369 168.327 264.252 168.831 264.252 169.41C264.252 169.998 264.369 170.511 264.602 170.95C264.836 171.379 265.148 171.71 265.54 171.944C265.932 172.168 266.366 172.28 266.842 172.28C267.318 172.28 267.752 172.168 268.144 171.944C268.546 171.71 268.863 171.379 269.096 170.95C269.33 170.511 269.446 170.002 269.446 169.424ZM274.161 167.03C274.423 166.572 274.805 166.199 275.309 165.91C275.813 165.62 276.387 165.476 277.031 165.476C277.722 165.476 278.343 165.639 278.893 165.966C279.444 166.292 279.878 166.754 280.195 167.352C280.513 167.94 280.671 168.626 280.671 169.41C280.671 170.184 280.513 170.875 280.195 171.482C279.878 172.088 279.439 172.56 278.879 172.896C278.329 173.232 277.713 173.4 277.031 173.4C276.369 173.4 275.785 173.255 275.281 172.966C274.787 172.676 274.413 172.308 274.161 171.86V173.274H272.887V162.914H274.161V167.03ZM279.369 169.41C279.369 168.831 279.253 168.327 279.019 167.898C278.786 167.468 278.469 167.142 278.067 166.918C277.675 166.694 277.241 166.582 276.765 166.582C276.299 166.582 275.865 166.698 275.463 166.932C275.071 167.156 274.754 167.487 274.511 167.926C274.278 168.355 274.161 168.854 274.161 169.424C274.161 170.002 274.278 170.511 274.511 170.95C274.754 171.379 275.071 171.71 275.463 171.944C275.865 172.168 276.299 172.28 276.765 172.28C277.241 172.28 277.675 172.168 278.067 171.944C278.469 171.71 278.786 171.379 279.019 170.95C279.253 170.511 279.369 169.998 279.369 169.41ZM285.694 173.4C284.976 173.4 284.322 173.236 283.734 172.91C283.156 172.583 282.698 172.121 282.362 171.524C282.036 170.917 281.872 170.217 281.872 169.424C281.872 168.64 282.04 167.949 282.376 167.352C282.722 166.745 283.188 166.283 283.776 165.966C284.364 165.639 285.022 165.476 285.75 165.476C286.478 165.476 287.136 165.639 287.724 165.966C288.312 166.283 288.774 166.74 289.11 167.338C289.456 167.935 289.628 168.63 289.628 169.424C289.628 170.217 289.451 170.917 289.096 171.524C288.751 172.121 288.28 172.583 287.682 172.91C287.085 173.236 286.422 173.4 285.694 173.4ZM285.694 172.28C286.152 172.28 286.581 172.172 286.982 171.958C287.384 171.743 287.706 171.421 287.948 170.992C288.2 170.562 288.326 170.04 288.326 169.424C288.326 168.808 288.205 168.285 287.962 167.856C287.72 167.426 287.402 167.109 287.01 166.904C286.618 166.689 286.194 166.582 285.736 166.582C285.27 166.582 284.84 166.689 284.448 166.904C284.066 167.109 283.758 167.426 283.524 167.856C283.291 168.285 283.174 168.808 283.174 169.424C283.174 170.049 283.286 170.576 283.51 171.006C283.744 171.435 284.052 171.757 284.434 171.972C284.817 172.177 285.237 172.28 285.694 172.28ZM298.107 165.602V173.274H296.833V172.14C296.591 172.532 296.25 172.84 295.811 173.064C295.382 173.278 294.906 173.386 294.383 173.386C293.786 173.386 293.249 173.264 292.773 173.022C292.297 172.77 291.919 172.396 291.639 171.902C291.369 171.407 291.233 170.805 291.233 170.096V165.602H292.493V169.928C292.493 170.684 292.685 171.267 293.067 171.678C293.45 172.079 293.973 172.28 294.635 172.28C295.317 172.28 295.853 172.07 296.245 171.65C296.637 171.23 296.833 170.618 296.833 169.816V165.602H298.107ZM301.812 166.652V171.174C301.812 171.547 301.892 171.813 302.05 171.972C302.209 172.121 302.484 172.196 302.876 172.196H303.814V173.274H302.666C301.957 173.274 301.425 173.11 301.07 172.784C300.716 172.457 300.538 171.92 300.538 171.174V166.652H299.544V165.602H300.538V163.67H301.812V165.602H303.814V166.652H301.812ZM315.894 165.602V173.274H314.62V172.14C314.378 172.532 314.037 172.84 313.598 173.064C313.169 173.278 312.693 173.386 312.17 173.386C311.573 173.386 311.036 173.264 310.56 173.022C310.084 172.77 309.706 172.396 309.426 171.902C309.156 171.407 309.02 170.805 309.02 170.096V165.602H310.28V169.928C310.28 170.684 310.472 171.267 310.854 171.678C311.237 172.079 311.76 172.28 312.422 172.28C313.104 172.28 313.64 172.07 314.032 171.65C314.424 171.23 314.62 170.618 314.62 169.816V165.602H315.894ZM321.784 165.462C322.717 165.462 323.473 165.746 324.052 166.316C324.63 166.876 324.92 167.688 324.92 168.752V173.274H323.66V168.934C323.66 168.168 323.468 167.585 323.086 167.184C322.703 166.773 322.18 166.568 321.518 166.568C320.846 166.568 320.309 166.778 319.908 167.198C319.516 167.618 319.32 168.229 319.32 169.032V173.274H318.046V165.602H319.32V166.694C319.572 166.302 319.912 165.998 320.342 165.784C320.78 165.569 321.261 165.462 321.784 165.462ZM326.525 169.41C326.525 168.626 326.683 167.94 327.001 167.352C327.318 166.754 327.752 166.292 328.303 165.966C328.863 165.639 329.488 165.476 330.179 165.476C330.776 165.476 331.331 165.616 331.845 165.896C332.358 166.166 332.75 166.526 333.021 166.974V162.914H334.309V173.274H333.021V171.832C332.769 172.289 332.395 172.667 331.901 172.966C331.406 173.255 330.827 173.4 330.165 173.4C329.483 173.4 328.863 173.232 328.303 172.896C327.752 172.56 327.318 172.088 327.001 171.482C326.683 170.875 326.525 170.184 326.525 169.41ZM333.021 169.424C333.021 168.845 332.904 168.341 332.671 167.912C332.437 167.482 332.12 167.156 331.719 166.932C331.327 166.698 330.893 166.582 330.417 166.582C329.941 166.582 329.507 166.694 329.115 166.918C328.723 167.142 328.41 167.468 328.177 167.898C327.943 168.327 327.827 168.831 327.827 169.41C327.827 169.998 327.943 170.511 328.177 170.95C328.41 171.379 328.723 171.71 329.115 171.944C329.507 172.168 329.941 172.28 330.417 172.28C330.893 172.28 331.327 172.168 331.719 171.944C332.12 171.71 332.437 171.379 332.671 170.95C332.904 170.511 333.021 170.002 333.021 169.424ZM343.462 169.144C343.462 169.386 343.448 169.643 343.42 169.914H337.288C337.334 170.67 337.591 171.262 338.058 171.692C338.534 172.112 339.108 172.322 339.78 172.322C340.33 172.322 340.788 172.196 341.152 171.944C341.525 171.682 341.786 171.337 341.936 170.908H343.308C343.102 171.645 342.692 172.247 342.076 172.714C341.46 173.171 340.694 173.4 339.78 173.4C339.052 173.4 338.398 173.236 337.82 172.91C337.25 172.583 336.802 172.121 336.476 171.524C336.149 170.917 335.986 170.217 335.986 169.424C335.986 168.63 336.144 167.935 336.462 167.338C336.779 166.74 337.222 166.283 337.792 165.966C338.37 165.639 339.033 165.476 339.78 165.476C340.508 165.476 341.152 165.634 341.712 165.952C342.272 166.269 342.701 166.708 343 167.268C343.308 167.818 343.462 168.444 343.462 169.144ZM342.146 168.878C342.146 168.392 342.038 167.977 341.824 167.632C341.609 167.277 341.315 167.011 340.942 166.834C340.578 166.647 340.172 166.554 339.724 166.554C339.08 166.554 338.529 166.759 338.072 167.17C337.624 167.58 337.367 168.15 337.302 168.878H342.146ZM346.417 166.848C346.641 166.409 346.959 166.068 347.369 165.826C347.789 165.583 348.298 165.462 348.895 165.462V166.778H348.559C347.131 166.778 346.417 167.552 346.417 169.102V173.274H345.143V165.602H346.417V166.848ZM353.082 173.4C352.494 173.4 351.967 173.302 351.5 173.106C351.033 172.9 350.665 172.62 350.394 172.266C350.123 171.902 349.974 171.486 349.946 171.02H351.262C351.299 171.402 351.477 171.715 351.794 171.958C352.121 172.2 352.545 172.322 353.068 172.322C353.553 172.322 353.936 172.214 354.216 172C354.496 171.785 354.636 171.514 354.636 171.188C354.636 170.852 354.487 170.604 354.188 170.446C353.889 170.278 353.427 170.114 352.802 169.956C352.233 169.806 351.766 169.657 351.402 169.508C351.047 169.349 350.739 169.12 350.478 168.822C350.226 168.514 350.1 168.112 350.1 167.618C350.1 167.226 350.217 166.866 350.45 166.54C350.683 166.213 351.015 165.956 351.444 165.77C351.873 165.574 352.363 165.476 352.914 165.476C353.763 165.476 354.449 165.69 354.972 166.12C355.495 166.549 355.775 167.137 355.812 167.884H354.538C354.51 167.482 354.347 167.16 354.048 166.918C353.759 166.675 353.367 166.554 352.872 166.554C352.415 166.554 352.051 166.652 351.78 166.848C351.509 167.044 351.374 167.3 351.374 167.618C351.374 167.87 351.453 168.08 351.612 168.248C351.78 168.406 351.985 168.537 352.228 168.64C352.48 168.733 352.825 168.84 353.264 168.962C353.815 169.111 354.263 169.26 354.608 169.41C354.953 169.55 355.247 169.764 355.49 170.054C355.742 170.343 355.873 170.721 355.882 171.188C355.882 171.608 355.765 171.986 355.532 172.322C355.299 172.658 354.967 172.924 354.538 173.12C354.118 173.306 353.633 173.4 353.082 173.4ZM359.234 166.652V171.174C359.234 171.547 359.314 171.813 359.472 171.972C359.631 172.121 359.906 172.196 360.298 172.196H361.236V173.274H360.088C359.379 173.274 358.847 173.11 358.492 172.784C358.138 172.457 357.96 171.92 357.96 171.174V166.652H356.966V165.602H357.96V163.67H359.234V165.602H361.236V166.652H359.234ZM362.304 169.41C362.304 168.626 362.463 167.94 362.78 167.352C363.097 166.754 363.531 166.292 364.082 165.966C364.642 165.639 365.263 165.476 365.944 165.476C366.616 165.476 367.199 165.62 367.694 165.91C368.189 166.199 368.557 166.563 368.8 167.002V165.602H370.088V173.274H368.8V171.846C368.548 172.294 368.17 172.667 367.666 172.966C367.171 173.255 366.593 173.4 365.93 173.4C365.249 173.4 364.633 173.232 364.082 172.896C363.531 172.56 363.097 172.088 362.78 171.482C362.463 170.875 362.304 170.184 362.304 169.41ZM368.8 169.424C368.8 168.845 368.683 168.341 368.45 167.912C368.217 167.482 367.899 167.156 367.498 166.932C367.106 166.698 366.672 166.582 366.196 166.582C365.72 166.582 365.286 166.694 364.894 166.918C364.502 167.142 364.189 167.468 363.956 167.898C363.723 168.327 363.606 168.831 363.606 169.41C363.606 169.998 363.723 170.511 363.956 170.95C364.189 171.379 364.502 171.71 364.894 171.944C365.286 172.168 365.72 172.28 366.196 172.28C366.672 172.28 367.106 172.168 367.498 171.944C367.899 171.71 368.217 171.379 368.45 170.95C368.683 170.511 368.8 170.002 368.8 169.424ZM375.979 165.462C376.912 165.462 377.668 165.746 378.247 166.316C378.826 166.876 379.115 167.688 379.115 168.752V173.274H377.855V168.934C377.855 168.168 377.664 167.585 377.281 167.184C376.898 166.773 376.376 166.568 375.713 166.568C375.041 166.568 374.504 166.778 374.103 167.198C373.711 167.618 373.515 168.229 373.515 169.032V173.274H372.241V165.602H373.515V166.694C373.767 166.302 374.108 165.998 374.537 165.784C374.976 165.569 375.456 165.462 375.979 165.462ZM380.72 169.41C380.72 168.626 380.879 167.94 381.196 167.352C381.513 166.754 381.947 166.292 382.498 165.966C383.058 165.639 383.683 165.476 384.374 165.476C384.971 165.476 385.527 165.616 386.04 165.896C386.553 166.166 386.945 166.526 387.216 166.974V162.914H388.504V173.274H387.216V171.832C386.964 172.289 386.591 172.667 386.096 172.966C385.601 173.255 385.023 173.4 384.36 173.4C383.679 173.4 383.058 173.232 382.498 172.896C381.947 172.56 381.513 172.088 381.196 171.482C380.879 170.875 380.72 170.184 380.72 169.41ZM387.216 169.424C387.216 168.845 387.099 168.341 386.866 167.912C386.633 167.482 386.315 167.156 385.914 166.932C385.522 166.698 385.088 166.582 384.612 166.582C384.136 166.582 383.702 166.694 383.31 166.918C382.918 167.142 382.605 167.468 382.372 167.898C382.139 168.327 382.022 168.831 382.022 169.41C382.022 169.998 382.139 170.511 382.372 170.95C382.605 171.379 382.918 171.71 383.31 171.944C383.702 172.168 384.136 172.28 384.612 172.28C385.088 172.28 385.522 172.168 385.914 171.944C386.315 171.71 386.633 171.379 386.866 170.95C387.099 170.511 387.216 170.002 387.216 169.424ZM391.315 164.356C391.072 164.356 390.867 164.272 390.699 164.104C390.531 163.936 390.447 163.73 390.447 163.488C390.447 163.245 390.531 163.04 390.699 162.872C390.867 162.704 391.072 162.62 391.315 162.62C391.548 162.62 391.744 162.704 391.903 162.872C392.071 163.04 392.155 163.245 392.155 163.488C392.155 163.73 392.071 163.936 391.903 164.104C391.744 164.272 391.548 164.356 391.315 164.356ZM391.931 165.602V173.274H390.657V165.602H391.931ZM397.84 165.462C398.774 165.462 399.53 165.746 400.108 166.316C400.687 166.876 400.976 167.688 400.976 168.752V173.274H399.716V168.934C399.716 168.168 399.525 167.585 399.142 167.184C398.76 166.773 398.237 166.568 397.574 166.568C396.902 166.568 396.366 166.778 395.964 167.198C395.572 167.618 395.376 168.229 395.376 169.032V173.274H394.102V165.602H395.376V166.694C395.628 166.302 395.969 165.998 396.398 165.784C396.837 165.569 397.318 165.462 397.84 165.462ZM406.221 165.476C406.884 165.476 407.463 165.62 407.957 165.91C408.461 166.199 408.835 166.563 409.077 167.002V165.602H410.365V173.442C410.365 174.142 410.216 174.762 409.917 175.304C409.619 175.854 409.189 176.284 408.629 176.592C408.079 176.9 407.435 177.054 406.697 177.054C405.689 177.054 404.849 176.816 404.177 176.34C403.505 175.864 403.109 175.215 402.987 174.394H404.247C404.387 174.86 404.677 175.234 405.115 175.514C405.554 175.803 406.081 175.948 406.697 175.948C407.397 175.948 407.967 175.728 408.405 175.29C408.853 174.851 409.077 174.235 409.077 173.442V171.832C408.825 172.28 408.452 172.653 407.957 172.952C407.463 173.25 406.884 173.4 406.221 173.4C405.54 173.4 404.919 173.232 404.359 172.896C403.809 172.56 403.375 172.088 403.057 171.482C402.74 170.875 402.581 170.184 402.581 169.41C402.581 168.626 402.74 167.94 403.057 167.352C403.375 166.754 403.809 166.292 404.359 165.966C404.919 165.639 405.54 165.476 406.221 165.476ZM409.077 169.424C409.077 168.845 408.961 168.341 408.727 167.912C408.494 167.482 408.177 167.156 407.775 166.932C407.383 166.698 406.949 166.582 406.473 166.582C405.997 166.582 405.563 166.694 405.171 166.918C404.779 167.142 404.467 167.468 404.233 167.898C404 168.327 403.883 168.831 403.883 169.41C403.883 169.998 404 170.511 404.233 170.95C404.467 171.379 404.779 171.71 405.171 171.944C405.563 172.168 405.997 172.28 406.473 172.28C406.949 172.28 407.383 172.168 407.775 171.944C408.177 171.71 408.494 171.379 408.727 170.95C408.961 170.511 409.077 170.002 409.077 169.424ZM412.924 173.358C412.682 173.358 412.476 173.274 412.308 173.106C412.14 172.938 412.056 172.732 412.056 172.49C412.056 172.247 412.14 172.042 412.308 171.874C412.476 171.706 412.682 171.622 412.924 171.622C413.158 171.622 413.354 171.706 413.512 171.874C413.68 172.042 413.764 172.247 413.764 172.49C413.764 172.732 413.68 172.938 413.512 173.106C413.354 173.274 413.158 173.358 412.924 173.358Z" fill="black"/>
</g>
</g>
</svg>
